<?xml version="1.0" encoding="utf-8" standalone="no"?>
<!DOCTYPE svg PUBLIC "-//W3C//DTD SVG 1.1//EN"
  "http://www.w3.org/Graphics/SVG/1.1/DTD/svg11.dtd">
<svg xmlns:xlink="http://www.w3.org/1999/xlink" width="314.1888pt" height="341.59018pt" viewBox="0 0 314.1888 341.59018" xmlns="http://www.w3.org/2000/svg" version="1.1">
 <metadata>
  <rdf:RDF xmlns:dc="http://purl.org/dc/elements/1.1/" xmlns:cc="http://creativecommons.org/ns#" xmlns:rdf="http://www.w3.org/1999/02/22-rdf-syntax-ns#">
   <cc:Work>
    <dc:type rdf:resource="http://purl.org/dc/dcmitype/StillImage"/>
    <dc:date>2024-02-22T20:55:29.641257</dc:date>
    <dc:format>image/svg+xml</dc:format>
    <dc:creator>
     <cc:Agent>
      <dc:title>Matplotlib v3.8.0, https://matplotlib.org/</dc:title>
     </cc:Agent>
    </dc:creator>
   </cc:Work>
  </rdf:RDF>
 </metadata>
 <defs>
  <style type="text/css">*{stroke-linejoin: round; stroke-linecap: butt}</style>
 </defs>
 <g id="figure_1">
  <g id="patch_1">
   <path d="M 0 341.59018 
L 314.1888 341.59018 
L 314.1888 0 
L 0 0 
z
" style="fill: #ffffff"/>
  </g>
  <g id="axes_1">
   <g id="PathCollection_1">
    <defs>
     <path id="m68b7a1e10c" d="M 0 1.06066 
C 0.28129 1.06066 0.551098 0.948902 0.75 0.75 
C 0.948902 0.551098 1.06066 0.28129 1.06066 0 
C 1.06066 -0.28129 0.948902 -0.551098 0.75 -0.75 
C 0.551098 -0.948902 0.28129 -1.06066 0 -1.06066 
C -0.28129 -1.06066 -0.551098 -0.948902 -0.75 -0.75 
C -0.948902 -0.551098 -1.06066 -0.28129 -1.06066 0 
C -1.06066 0.28129 -0.948902 0.551098 -0.75 0.75 
C -0.551098 0.948902 -0.28129 1.06066 0 1.06066 
z
" style="stroke: #008000"/>
    </defs>
    <g clip-path="url(#p5cf60b6211)">
     <use xlink:href="#m68b7a1e10c" x="172.08384" y="277.00992" style="fill: #008000; stroke: #008000"/>
     <use xlink:href="#m68b7a1e10c" x="142.10496" y="277.00992" style="fill: #008000; stroke: #008000"/>
     <use xlink:href="#m68b7a1e10c" x="157.0944" y="277.00992" style="fill: #008000; stroke: #008000"/>
     <use xlink:href="#m68b7a1e10c" x="187.07328" y="253.026816" style="fill: #008000; stroke: #008000"/>
     <use xlink:href="#m68b7a1e10c" x="127.11552" y="253.026816" style="fill: #008000; stroke: #008000"/>
     <use xlink:href="#m68b7a1e10c" x="157.0944" y="253.026816" style="fill: #008000; stroke: #008000"/>
     <use xlink:href="#m68b7a1e10c" x="196.066944" y="226.045824" style="fill: #008000; stroke: #008000"/>
     <use xlink:href="#m68b7a1e10c" x="118.121856" y="226.045824" style="fill: #008000; stroke: #008000"/>
     <use xlink:href="#m68b7a1e10c" x="157.0944" y="226.045824" style="fill: #008000; stroke: #008000"/>
     <use xlink:href="#m68b7a1e10c" x="142.10496" y="226.045824" style="fill: #008000; stroke: #008000"/>
     <use xlink:href="#m68b7a1e10c" x="172.08384" y="226.045824" style="fill: #008000; stroke: #008000"/>
     <use xlink:href="#m68b7a1e10c" x="217.05216" y="226.045824" style="fill: #008000; stroke: #008000"/>
     <use xlink:href="#m68b7a1e10c" x="97.13664" y="226.045824" style="fill: #008000; stroke: #008000"/>
     <use xlink:href="#m68b7a1e10c" x="187.07328" y="199.064832" style="fill: #008000; stroke: #008000"/>
     <use xlink:href="#m68b7a1e10c" x="127.11552" y="199.064832" style="fill: #008000; stroke: #008000"/>
     <use xlink:href="#m68b7a1e10c" x="91.140864" y="199.064832" style="fill: #008000; stroke: #008000"/>
     <use xlink:href="#m68b7a1e10c" x="223.047936" y="199.064832" style="fill: #008000; stroke: #008000"/>
     <use xlink:href="#m68b7a1e10c" x="52.16832" y="199.064832" style="fill: #008000; stroke: #008000"/>
     <use xlink:href="#m68b7a1e10c" x="262.02048" y="199.064832" style="fill: #008000; stroke: #008000"/>
     <use xlink:href="#m68b7a1e10c" x="67.15776" y="199.064832" style="fill: #008000; stroke: #008000"/>
     <use xlink:href="#m68b7a1e10c" x="247.03104" y="199.064832" style="fill: #008000; stroke: #008000"/>
     <use xlink:href="#m68b7a1e10c" x="157.0944" y="193.069056" style="fill: #008000; stroke: #008000"/>
     <use xlink:href="#m68b7a1e10c" x="157.0944" y="211.056384" style="fill: #008000; stroke: #008000"/>
     <use xlink:href="#m68b7a1e10c" x="175.081728" y="187.07328" style="fill: #008000; stroke: #008000"/>
     <use xlink:href="#m68b7a1e10c" x="139.107072" y="187.07328" style="fill: #008000; stroke: #008000"/>
    </g>
   </g>
   <g id="PathCollection_2">
    <defs>
     <path id="m79eda2d225" d="M 0 -4.242641 
L -0.952532 -1.311048 
L -4.034991 -1.311048 
L -1.541229 0.500776 
L -2.493762 3.432368 
L -0 1.620544 
L 2.493762 3.432368 
L 1.541229 0.500776 
L 4.034991 -1.311048 
L 0.952532 -1.311048 
z
" style="stroke: #008000"/>
    </defs>
    <g clip-path="url(#p5cf60b6211)">
     <use xlink:href="#m79eda2d225" x="157.0944" y="291.99936" style="fill: #008000; stroke: #008000"/>
    </g>
   </g>
   <g id="PathCollection_3">
    <defs>
     <path id="m4a1e103d7f" d="M 0 1.06066 
C 0.28129 1.06066 0.551098 0.948902 0.75 0.75 
C 0.948902 0.551098 1.06066 0.28129 1.06066 0 
C 1.06066 -0.28129 0.948902 -0.551098 0.75 -0.75 
C 0.551098 -0.948902 0.28129 -1.06066 0 -1.06066 
C -0.28129 -1.06066 -0.551098 -0.948902 -0.75 -0.75 
C -0.948902 -0.551098 -1.06066 -0.28129 -1.06066 0 
C -1.06066 0.28129 -0.948902 0.551098 -0.75 0.75 
C -0.551098 0.948902 -0.28129 1.06066 0 1.06066 
z
" style="stroke: #ff0000"/>
    </defs>
    <g clip-path="url(#p5cf60b6211)">
     <use xlink:href="#m4a1e103d7f" x="172.08384" y="31.183104" style="fill: #ff0000; stroke: #ff0000"/>
     <use xlink:href="#m4a1e103d7f" x="142.10496" y="31.183104" style="fill: #ff0000; stroke: #ff0000"/>
     <use xlink:href="#m4a1e103d7f" x="157.0944" y="31.183104" style="fill: #ff0000; stroke: #ff0000"/>
     <use xlink:href="#m4a1e103d7f" x="187.07328" y="55.166208" style="fill: #ff0000; stroke: #ff0000"/>
     <use xlink:href="#m4a1e103d7f" x="127.11552" y="55.166208" style="fill: #ff0000; stroke: #ff0000"/>
     <use xlink:href="#m4a1e103d7f" x="157.0944" y="55.166208" style="fill: #ff0000; stroke: #ff0000"/>
     <use xlink:href="#m4a1e103d7f" x="196.066944" y="79.149312" style="fill: #ff0000; stroke: #ff0000"/>
     <use xlink:href="#m4a1e103d7f" x="118.121856" y="79.149312" style="fill: #ff0000; stroke: #ff0000"/>
     <use xlink:href="#m4a1e103d7f" x="157.0944" y="79.149312" style="fill: #ff0000; stroke: #ff0000"/>
     <use xlink:href="#m4a1e103d7f" x="178.079616" y="103.132416" style="fill: #ff0000; stroke: #ff0000"/>
     <use xlink:href="#m4a1e103d7f" x="136.109184" y="103.132416" style="fill: #ff0000; stroke: #ff0000"/>
     <use xlink:href="#m4a1e103d7f" x="157.0944" y="103.132416" style="fill: #ff0000; stroke: #ff0000"/>
     <use xlink:href="#m4a1e103d7f" x="127.11552" y="103.132416" style="fill: #ff0000; stroke: #ff0000"/>
     <use xlink:href="#m4a1e103d7f" x="202.06272" y="103.132416" style="fill: #ff0000; stroke: #ff0000"/>
     <use xlink:href="#m4a1e103d7f" x="112.12608" y="103.132416" style="fill: #ff0000; stroke: #ff0000"/>
     <use xlink:href="#m4a1e103d7f" x="187.07328" y="103.132416" style="fill: #ff0000; stroke: #ff0000"/>
     <use xlink:href="#m4a1e103d7f" x="82.1472" y="103.132416" style="fill: #ff0000; stroke: #ff0000"/>
     <use xlink:href="#m4a1e103d7f" x="232.0416" y="103.132416" style="fill: #ff0000; stroke: #ff0000"/>
     <use xlink:href="#m4a1e103d7f" x="67.15776" y="103.132416" style="fill: #ff0000; stroke: #ff0000"/>
     <use xlink:href="#m4a1e103d7f" x="247.03104" y="103.132416" style="fill: #ff0000; stroke: #ff0000"/>
     <use xlink:href="#m4a1e103d7f" x="169.085952" y="121.119744" style="fill: #ff0000; stroke: #ff0000"/>
     <use xlink:href="#m4a1e103d7f" x="145.102848" y="121.119744" style="fill: #ff0000; stroke: #ff0000"/>
     <use xlink:href="#m4a1e103d7f" x="163.090176" y="127.11552" style="fill: #ff0000; stroke: #ff0000"/>
     <use xlink:href="#m4a1e103d7f" x="151.098624" y="127.11552" style="fill: #ff0000; stroke: #ff0000"/>
     <use xlink:href="#m4a1e103d7f" x="157.0944" y="112.12608" style="fill: #ff0000; stroke: #ff0000"/>
    </g>
   </g>
   <g id="PathCollection_4">
    <defs>
     <path id="m9fd299abd7" d="M 0 -4.242641 
L -0.952532 -1.311048 
L -4.034991 -1.311048 
L -1.541229 0.500776 
L -2.493762 3.432368 
L -0 1.620544 
L 2.493762 3.432368 
L 1.541229 0.500776 
L 4.034991 -1.311048 
L 0.952532 -1.311048 
z
" style="stroke: #ff0000"/>
    </defs>
    <g clip-path="url(#p5cf60b6211)">
     <use xlink:href="#m9fd299abd7" x="157.0944" y="31.183104" style="fill: #ff0000; stroke: #ff0000"/>
    </g>
   </g>
   <g id="PathCollection_5">
    <defs>
     <path id="m5c4f9afb9b" d="M 0 1.5 
C 0.397805 1.5 0.77937 1.341951 1.06066 1.06066 
C 1.341951 0.77937 1.5 0.397805 1.5 0 
C 1.5 -0.397805 1.341951 -0.77937 1.06066 -1.06066 
C 0.77937 -1.341951 0.397805 -1.5 0 -1.5 
C -0.397805 -1.5 -0.77937 -1.341951 -1.06066 -1.06066 
C -1.341951 -0.77937 -1.5 -0.397805 -1.5 0 
C -1.5 0.397805 -1.341951 0.77937 -1.06066 1.06066 
C -0.77937 1.341951 -0.397805 1.5 0 1.5 
z
" style="stroke: #000000"/>
    </defs>
    <g clip-path="url(#p5cf60b6211)">
     <use xlink:href="#m5c4f9afb9b" x="157.0944" y="160.092288" style="stroke: #000000"/>
    </g>
   </g>
   <g id="PathCollection_6">
    <defs>
     <path id="m1f2deeedfd" d="M 0 1.5 
C 0.397805 1.5 0.77937 1.341951 1.06066 1.06066 
C 1.341951 0.77937 1.5 0.397805 1.5 0 
C 1.5 -0.397805 1.341951 -0.77937 1.06066 -1.06066 
C 0.77937 -1.341951 0.397805 -1.5 0 -1.5 
C -0.397805 -1.5 -0.77937 -1.341951 -1.06066 -1.06066 
C -1.341951 -0.77937 -1.5 -0.397805 -1.5 0 
C -1.5 0.397805 -1.341951 0.77937 -1.06066 1.06066 
C -0.77937 1.341951 -0.397805 1.5 0 1.5 
z
" style="stroke: #ff0000"/>
    </defs>
    <g clip-path="url(#p5cf60b6211)">
     <use xlink:href="#m1f2deeedfd" x="157.0944" y="112.12608" style="fill: #ff0000; stroke: #ff0000"/>
    </g>
   </g>
   <g id="patch_2">
    <path d="M 157.0944 112.12608 
L 158.593344 116.622912 
L 157.244294 116.622912 
L 157.244294 160.092288 
L 156.944506 160.092288 
L 156.944506 116.622912 
L 155.595456 116.622912 
z
" clip-path="url(#p5cf60b6211)" style="fill: #0000ff; stroke: #000000; stroke-linejoin: miter"/>
   </g>
   <g id="text_1">
    <!-- D -->
    <g style="fill: #008000" transform="translate(157.0944 312.103024) scale(0.16 -0.16)">
     <defs>
      <path id="TimesNewRomanPSMT-44" d="M 109 0 
L 109 116 
L 269 116 
Q 538 116 650 288 
Q 719 391 719 750 
L 719 3488 
Q 719 3884 631 3984 
Q 509 4122 269 4122 
L 109 4122 
L 109 4238 
L 1834 4238 
Q 2784 4238 3279 4022 
Q 3775 3806 4076 3303 
Q 4378 2800 4378 2141 
Q 4378 1256 3841 663 
Q 3238 0 2003 0 
L 109 0 
z
M 1319 306 
Q 1716 219 1984 219 
Q 2709 219 3187 728 
Q 3666 1238 3666 2109 
Q 3666 2988 3187 3494 
Q 2709 4000 1959 4000 
Q 1678 4000 1319 3909 
L 1319 306 
z
" transform="scale(0.015625)"/>
     </defs>
     <use xlink:href="#TimesNewRomanPSMT-44"/>
    </g>
   </g>
   <g id="text_2">
    <!-- A -->
    <g style="fill: #ff0000" transform="translate(166.088064 18.31) scale(0.16 -0.16)">
     <defs>
      <path id="TimesNewRomanPSMT-41" d="M 2928 1419 
L 1288 1419 
L 1000 750 
Q 894 503 894 381 
Q 894 284 986 211 
Q 1078 138 1384 116 
L 1384 0 
L 50 0 
L 50 116 
Q 316 163 394 238 
Q 553 388 747 847 
L 2238 4334 
L 2347 4334 
L 3822 809 
Q 4000 384 4145 257 
Q 4291 131 4550 116 
L 4550 0 
L 2878 0 
L 2878 116 
Q 3131 128 3220 200 
Q 3309 272 3309 375 
Q 3309 513 3184 809 
L 2928 1419 
z
M 2841 1650 
L 2122 3363 
L 1384 1650 
L 2841 1650 
z
" transform="scale(0.015625)"/>
     </defs>
     <use xlink:href="#TimesNewRomanPSMT-41"/>
    </g>
   </g>
   <g id="text_3">
    <!-- b -->
    <g transform="translate(166.088064 171.202288) scale(0.16 -0.16)">
     <defs>
      <path id="TimesNewRomanPSMT-62" d="M 984 2369 
Q 1400 2947 1881 2947 
Q 2322 2947 2650 2570 
Q 2978 2194 2978 1541 
Q 2978 778 2472 313 
Q 2038 -88 1503 -88 
Q 1253 -88 995 3 
Q 738 94 469 275 
L 469 3241 
Q 469 3728 445 3840 
Q 422 3953 372 3993 
Q 322 4034 247 4034 
Q 159 4034 28 3984 
L -16 4094 
L 844 4444 
L 984 4444 
L 984 2369 
z
M 984 2169 
L 984 456 
Q 1144 300 1314 220 
Q 1484 141 1663 141 
Q 1947 141 2192 453 
Q 2438 766 2438 1363 
Q 2438 1913 2192 2208 
Q 1947 2503 1634 2503 
Q 1469 2503 1303 2419 
Q 1178 2356 984 2169 
z
" transform="scale(0.015625)"/>
     </defs>
     <use xlink:href="#TimesNewRomanPSMT-62"/>
    </g>
   </g>
   <g id="text_4">
    <!-- c -->
    <g transform="translate(163.090176 108.24664) scale(0.16 -0.16)">
     <defs>
      <path id="TimesNewRomanPSMT-63" d="M 2631 1088 
Q 2516 522 2178 217 
Q 1841 -88 1431 -88 
Q 944 -88 581 321 
Q 219 731 219 1428 
Q 219 2103 620 2525 
Q 1022 2947 1584 2947 
Q 2006 2947 2278 2723 
Q 2550 2500 2550 2259 
Q 2550 2141 2473 2067 
Q 2397 1994 2259 1994 
Q 2075 1994 1981 2113 
Q 1928 2178 1911 2362 
Q 1894 2547 1784 2644 
Q 1675 2738 1481 2738 
Q 1169 2738 978 2506 
Q 725 2200 725 1697 
Q 725 1184 976 792 
Q 1228 400 1656 400 
Q 1963 400 2206 609 
Q 2378 753 2541 1131 
L 2631 1088 
z
" transform="scale(0.015625)"/>
     </defs>
     <use xlink:href="#TimesNewRomanPSMT-63"/>
    </g>
   </g>
   <g id="text_5">
    <!-- Domino Effect -->
    <g transform="translate(109.47315 330.96768) scale(0.16 -0.16)">
     <defs>
      <path id="TimesNewRomanPSMT-6f" d="M 1600 2947 
Q 2250 2947 2644 2453 
Q 2978 2031 2978 1484 
Q 2978 1100 2793 706 
Q 2609 313 2286 112 
Q 1963 -88 1566 -88 
Q 919 -88 538 428 
Q 216 863 216 1403 
Q 216 1797 411 2186 
Q 606 2575 925 2761 
Q 1244 2947 1600 2947 
z
M 1503 2744 
Q 1338 2744 1170 2645 
Q 1003 2547 900 2300 
Q 797 2053 797 1666 
Q 797 1041 1045 587 
Q 1294 134 1700 134 
Q 2003 134 2200 384 
Q 2397 634 2397 1244 
Q 2397 2006 2069 2444 
Q 1847 2744 1503 2744 
z
" transform="scale(0.015625)"/>
      <path id="TimesNewRomanPSMT-6d" d="M 1050 2338 
Q 1363 2650 1419 2697 
Q 1559 2816 1721 2881 
Q 1884 2947 2044 2947 
Q 2313 2947 2506 2790 
Q 2700 2634 2766 2338 
Q 3088 2713 3309 2830 
Q 3531 2947 3766 2947 
Q 3994 2947 4170 2830 
Q 4347 2713 4450 2447 
Q 4519 2266 4519 1878 
L 4519 647 
Q 4519 378 4559 278 
Q 4591 209 4675 161 
Q 4759 113 4950 113 
L 4950 0 
L 3538 0 
L 3538 113 
L 3597 113 
Q 3781 113 3884 184 
Q 3956 234 3988 344 
Q 4000 397 4000 647 
L 4000 1878 
Q 4000 2228 3916 2372 
Q 3794 2572 3525 2572 
Q 3359 2572 3192 2489 
Q 3025 2406 2788 2181 
L 2781 2147 
L 2788 2013 
L 2788 647 
Q 2788 353 2820 281 
Q 2853 209 2943 161 
Q 3034 113 3253 113 
L 3253 0 
L 1806 0 
L 1806 113 
Q 2044 113 2133 169 
Q 2222 225 2256 338 
Q 2272 391 2272 647 
L 2272 1878 
Q 2272 2228 2169 2381 
Q 2031 2581 1784 2581 
Q 1616 2581 1450 2491 
Q 1191 2353 1050 2181 
L 1050 647 
Q 1050 366 1089 281 
Q 1128 197 1204 155 
Q 1281 113 1516 113 
L 1516 0 
L 100 0 
L 100 113 
Q 297 113 375 155 
Q 453 197 493 289 
Q 534 381 534 647 
L 534 1741 
Q 534 2213 506 2350 
Q 484 2453 437 2492 
Q 391 2531 309 2531 
Q 222 2531 100 2484 
L 53 2597 
L 916 2947 
L 1050 2947 
L 1050 2338 
z
" transform="scale(0.015625)"/>
      <path id="TimesNewRomanPSMT-69" d="M 928 4444 
Q 1059 4444 1151 4351 
Q 1244 4259 1244 4128 
Q 1244 3997 1151 3903 
Q 1059 3809 928 3809 
Q 797 3809 703 3903 
Q 609 3997 609 4128 
Q 609 4259 701 4351 
Q 794 4444 928 4444 
z
M 1188 2947 
L 1188 647 
Q 1188 378 1227 289 
Q 1266 200 1342 156 
Q 1419 113 1622 113 
L 1622 0 
L 231 0 
L 231 113 
Q 441 113 512 153 
Q 584 194 626 287 
Q 669 381 669 647 
L 669 1750 
Q 669 2216 641 2353 
Q 619 2453 572 2492 
Q 525 2531 444 2531 
Q 356 2531 231 2484 
L 188 2597 
L 1050 2947 
L 1188 2947 
z
" transform="scale(0.015625)"/>
      <path id="TimesNewRomanPSMT-6e" d="M 1034 2341 
Q 1538 2947 1994 2947 
Q 2228 2947 2397 2830 
Q 2566 2713 2666 2444 
Q 2734 2256 2734 1869 
L 2734 647 
Q 2734 375 2778 278 
Q 2813 200 2889 156 
Q 2966 113 3172 113 
L 3172 0 
L 1756 0 
L 1756 113 
L 1816 113 
Q 2016 113 2095 173 
Q 2175 234 2206 353 
Q 2219 400 2219 647 
L 2219 1819 
Q 2219 2209 2117 2386 
Q 2016 2563 1775 2563 
Q 1403 2563 1034 2156 
L 1034 647 
Q 1034 356 1069 288 
Q 1113 197 1189 155 
Q 1266 113 1500 113 
L 1500 0 
L 84 0 
L 84 113 
L 147 113 
Q 366 113 442 223 
Q 519 334 519 647 
L 519 1709 
Q 519 2225 495 2337 
Q 472 2450 423 2490 
Q 375 2531 294 2531 
Q 206 2531 84 2484 
L 38 2597 
L 900 2947 
L 1034 2947 
L 1034 2341 
z
" transform="scale(0.015625)"/>
      <path id="TimesNewRomanPSMT-20" transform="scale(0.015625)"/>
      <path id="TimesNewRomanPSMT-45" d="M 1338 4006 
L 1338 2331 
L 2269 2331 
Q 2631 2331 2753 2441 
Q 2916 2584 2934 2947 
L 3050 2947 
L 3050 1472 
L 2934 1472 
Q 2891 1781 2847 1869 
Q 2791 1978 2662 2040 
Q 2534 2103 2269 2103 
L 1338 2103 
L 1338 706 
Q 1338 425 1363 364 
Q 1388 303 1450 267 
Q 1513 231 1688 231 
L 2406 231 
Q 2766 231 2928 281 
Q 3091 331 3241 478 
Q 3434 672 3638 1063 
L 3763 1063 
L 3397 0 
L 131 0 
L 131 116 
L 281 116 
Q 431 116 566 188 
Q 666 238 702 338 
Q 738 438 738 747 
L 738 3500 
Q 738 3903 656 3997 
Q 544 4122 281 4122 
L 131 4122 
L 131 4238 
L 3397 4238 
L 3444 3309 
L 3322 3309 
Q 3256 3644 3176 3769 
Q 3097 3894 2941 3959 
Q 2816 4006 2500 4006 
L 1338 4006 
z
" transform="scale(0.015625)"/>
      <path id="TimesNewRomanPSMT-66" d="M 1319 2638 
L 1319 756 
Q 1319 356 1406 250 
Q 1522 113 1716 113 
L 1975 113 
L 1975 0 
L 266 0 
L 266 113 
L 394 113 
Q 519 113 622 175 
Q 725 238 764 344 
Q 803 450 803 756 
L 803 2638 
L 247 2638 
L 247 2863 
L 803 2863 
L 803 3050 
Q 803 3478 940 3775 
Q 1078 4072 1361 4255 
Q 1644 4438 1997 4438 
Q 2325 4438 2600 4225 
Q 2781 4084 2781 3909 
Q 2781 3816 2700 3733 
Q 2619 3650 2525 3650 
Q 2453 3650 2373 3701 
Q 2294 3753 2178 3923 
Q 2063 4094 1966 4153 
Q 1869 4213 1750 4213 
Q 1606 4213 1506 4136 
Q 1406 4059 1362 3898 
Q 1319 3738 1319 3069 
L 1319 2863 
L 2056 2863 
L 2056 2638 
L 1319 2638 
z
" transform="scale(0.015625)"/>
      <path id="TimesNewRomanPSMT-65" d="M 681 1784 
Q 678 1147 991 784 
Q 1303 422 1725 422 
Q 2006 422 2214 576 
Q 2422 731 2563 1106 
L 2659 1044 
Q 2594 616 2278 264 
Q 1963 -88 1488 -88 
Q 972 -88 605 314 
Q 238 716 238 1394 
Q 238 2128 614 2539 
Q 991 2950 1559 2950 
Q 2041 2950 2350 2633 
Q 2659 2316 2659 1784 
L 681 1784 
z
M 681 1966 
L 2006 1966 
Q 1991 2241 1941 2353 
Q 1863 2528 1708 2628 
Q 1553 2728 1384 2728 
Q 1125 2728 920 2526 
Q 716 2325 681 1966 
z
" transform="scale(0.015625)"/>
      <path id="TimesNewRomanPSMT-74" d="M 1031 3803 
L 1031 2863 
L 1700 2863 
L 1700 2644 
L 1031 2644 
L 1031 788 
Q 1031 509 1111 412 
Q 1191 316 1316 316 
Q 1419 316 1516 380 
Q 1613 444 1666 569 
L 1788 569 
Q 1678 263 1478 108 
Q 1278 -47 1066 -47 
Q 922 -47 784 33 
Q 647 113 581 261 
Q 516 409 516 719 
L 516 2644 
L 63 2644 
L 63 2747 
Q 234 2816 414 2980 
Q 594 3144 734 3369 
Q 806 3488 934 3803 
L 1031 3803 
z
" transform="scale(0.015625)"/>
     </defs>
     <use xlink:href="#TimesNewRomanPSMT-44"/>
     <use xlink:href="#TimesNewRomanPSMT-6f" x="72.216797"/>
     <use xlink:href="#TimesNewRomanPSMT-6d" x="122.216797"/>
     <use xlink:href="#TimesNewRomanPSMT-69" x="200"/>
     <use xlink:href="#TimesNewRomanPSMT-6e" x="227.783203"/>
     <use xlink:href="#TimesNewRomanPSMT-6f" x="277.783203"/>
     <use xlink:href="#TimesNewRomanPSMT-20" x="327.783203"/>
     <use xlink:href="#TimesNewRomanPSMT-45" x="352.783203"/>
     <use xlink:href="#TimesNewRomanPSMT-66" x="413.867188"/>
     <use xlink:href="#TimesNewRomanPSMT-66" x="445.417969"/>
     <use xlink:href="#TimesNewRomanPSMT-65" x="478.71875"/>
     <use xlink:href="#TimesNewRomanPSMT-63" x="523.103516"/>
     <use xlink:href="#TimesNewRomanPSMT-74" x="567.488281"/>
    </g>
   </g>
  </g>
 </g>
 <defs>
  <clipPath id="p5cf60b6211">
   <rect x="7.2" y="7.2" width="299.7888" height="299.7888"/>
  </clipPath>
 </defs>
</svg>
