<?xml version="1.0" encoding="utf-8" standalone="no"?>
<!DOCTYPE svg PUBLIC "-//W3C//DTD SVG 1.1//EN"
  "http://www.w3.org/Graphics/SVG/1.1/DTD/svg11.dtd">
<svg xmlns:xlink="http://www.w3.org/1999/xlink" width="360.874245pt" height="332.446327pt" viewBox="0 0 360.874245 332.446327" xmlns="http://www.w3.org/2000/svg" version="1.1">
 <metadata>
  <rdf:RDF xmlns:dc="http://purl.org/dc/elements/1.1/" xmlns:cc="http://creativecommons.org/ns#" xmlns:rdf="http://www.w3.org/1999/02/22-rdf-syntax-ns#">
   <cc:Work>
    <dc:type rdf:resource="http://purl.org/dc/dcmitype/StillImage"/>
    <dc:date>2024-02-25T16:51:58.641455</dc:date>
    <dc:format>image/svg+xml</dc:format>
    <dc:creator>
     <cc:Agent>
      <dc:title>Matplotlib v3.8.0, https://matplotlib.org/</dc:title>
     </cc:Agent>
    </dc:creator>
   </cc:Work>
  </rdf:RDF>
 </metadata>
 <defs>
  <style type="text/css">*{stroke-linejoin: round; stroke-linecap: butt}</style>
 </defs>
 <g id="figure_1">
  <g id="patch_1">
   <path d="M 0 332.446327 
L 360.874245 332.446327 
L 360.874245 0 
L 0 0 
z
" style="fill: #ffffff"/>
  </g>
  <g id="axes_1">
   <g id="PathCollection_1">
    <defs>
     <path id="m76366443d5" d="M 0 1.06066 
C 0.28129 1.06066 0.551098 0.948902 0.75 0.75 
C 0.948902 0.551098 1.06066 0.28129 1.06066 0 
C 1.06066 -0.28129 0.948902 -0.551098 0.75 -0.75 
C 0.551098 -0.948902 0.28129 -1.06066 0 -1.06066 
C -0.28129 -1.06066 -0.551098 -0.948902 -0.75 -0.75 
C -0.948902 -0.551098 -1.06066 -0.28129 -1.06066 0 
C -1.06066 0.28129 -0.948902 0.551098 -0.75 0.75 
C -0.551098 0.948902 -0.28129 1.06066 0 1.06066 
z
" style="stroke: #008000"/>
    </defs>
    <g clip-path="url(#p4295879790)">
     <use xlink:href="#m76366443d5" x="19.432551" y="310.567266" style="fill: #008000; stroke: #008000"/>
     <use xlink:href="#m76366443d5" x="14.539531" y="295.888204" style="fill: #008000; stroke: #008000"/>
     <use xlink:href="#m76366443d5" x="31.665102" y="288.548674" style="fill: #008000; stroke: #008000"/>
     <use xlink:href="#m76366443d5" x="24.325571" y="276.316123" style="fill: #008000; stroke: #008000"/>
     <use xlink:href="#m76366443d5" x="56.130204" y="308.120755" style="fill: #008000; stroke: #008000"/>
     <use xlink:href="#m76366443d5" x="26.772082" y="305.674245" style="fill: #008000; stroke: #008000"/>
     <use xlink:href="#m76366443d5" x="61.023225" y="227.385919" style="fill: #008000; stroke: #008000"/>
     <use xlink:href="#m76366443d5" x="43.897653" y="239.61847" style="fill: #008000; stroke: #008000"/>
     <use xlink:href="#m76366443d5" x="68.362755" y="246.958" style="fill: #008000; stroke: #008000"/>
     <use xlink:href="#m76366443d5" x="58.576714" y="276.316123" style="fill: #008000; stroke: #008000"/>
     <use xlink:href="#m76366443d5" x="43.897653" y="227.385919" style="fill: #008000; stroke: #008000"/>
     <use xlink:href="#m76366443d5" x="39.004633" y="237.171959" style="fill: #008000; stroke: #008000"/>
     <use xlink:href="#m76366443d5" x="41.451143" y="251.851021" style="fill: #008000; stroke: #008000"/>
     <use xlink:href="#m76366443d5" x="21.879061" y="264.083572" style="fill: #008000; stroke: #008000"/>
    </g>
   </g>
   <g id="PathCollection_2">
    <defs>
     <path id="mabd135ab43" d="M 0 -3 
L -3 3 
L 3 3 
z
" style="stroke: #008000"/>
    </defs>
    <g clip-path="url(#p4295879790)">
     <use xlink:href="#mabd135ab43" x="19.432551" y="310.567266" style="fill: #008000; stroke: #008000"/>
    </g>
   </g>
   <g id="PathCollection_3">
    <defs>
     <path id="m44d448e445" d="M 0 1.06066 
C 0.28129 1.06066 0.551098 0.948902 0.75 0.75 
C 0.948902 0.551098 1.06066 0.28129 1.06066 0 
C 1.06066 -0.28129 0.948902 -0.551098 0.75 -0.75 
C 0.551098 -0.948902 0.28129 -1.06066 0 -1.06066 
C -0.28129 -1.06066 -0.551098 -0.948902 -0.75 -0.75 
C -0.948902 -0.551098 -1.06066 -0.28129 -1.06066 0 
C -1.06066 0.28129 -0.948902 0.551098 -0.75 0.75 
C -0.551098 0.948902 -0.28129 1.06066 0 1.06066 
z
" style="stroke: #ff0000"/>
    </defs>
    <g clip-path="url(#p4295879790)">
     <use xlink:href="#m44d448e445" x="80.595306" y="31.665102" style="fill: #ff0000; stroke: #ff0000"/>
     <use xlink:href="#m44d448e445" x="68.362755" y="80.595306" style="fill: #ff0000; stroke: #ff0000"/>
     <use xlink:href="#m44d448e445" x="56.130204" y="68.362755" style="fill: #ff0000; stroke: #ff0000"/>
     <use xlink:href="#m44d448e445" x="61.023225" y="105.060408" style="fill: #ff0000; stroke: #ff0000"/>
     <use xlink:href="#m44d448e445" x="53.683694" y="117.292959" style="fill: #ff0000; stroke: #ff0000"/>
     <use xlink:href="#m44d448e445" x="65.916245" y="153.990612" style="fill: #ff0000; stroke: #ff0000"/>
     <use xlink:href="#m44d448e445" x="51.237184" y="166.223163" style="fill: #ff0000; stroke: #ff0000"/>
     <use xlink:href="#m44d448e445" x="43.897653" y="149.097592" style="fill: #ff0000; stroke: #ff0000"/>
     <use xlink:href="#m44d448e445" x="105.060408" y="51.237184" style="fill: #ff0000; stroke: #ff0000"/>
     <use xlink:href="#m44d448e445" x="73.255776" y="56.130204" style="fill: #ff0000; stroke: #ff0000"/>
     <use xlink:href="#m44d448e445" x="144.204572" y="124.63249" style="fill: #ff0000; stroke: #ff0000"/>
     <use xlink:href="#m44d448e445" x="92.827857" y="65.916245" style="fill: #ff0000; stroke: #ff0000"/>
     <use xlink:href="#m44d448e445" x="117.292959" y="80.595306" style="fill: #ff0000; stroke: #ff0000"/>
     <use xlink:href="#m44d448e445" x="119.73947" y="105.060408" style="fill: #ff0000; stroke: #ff0000"/>
     <use xlink:href="#m44d448e445" x="105.060408" y="92.827857" style="fill: #ff0000; stroke: #ff0000"/>
     <use xlink:href="#m44d448e445" x="139.311551" y="153.990612" style="fill: #ff0000; stroke: #ff0000"/>
     <use xlink:href="#m44d448e445" x="149.097592" y="149.097592" style="fill: #ff0000; stroke: #ff0000"/>
     <use xlink:href="#m44d448e445" x="158.883633" y="139.311551" style="fill: #ff0000; stroke: #ff0000"/>
     <use xlink:href="#m44d448e445" x="163.776653" y="129.52551" style="fill: #ff0000; stroke: #ff0000"/>
     <use xlink:href="#m44d448e445" x="190.688266" y="161.330143" style="fill: #ff0000; stroke: #ff0000"/>
     <use xlink:href="#m44d448e445" x="198.027796" y="153.990612" style="fill: #ff0000; stroke: #ff0000"/>
     <use xlink:href="#m44d448e445" x="180.902225" y="107.506918" style="fill: #ff0000; stroke: #ff0000"/>
     <use xlink:href="#m44d448e445" x="178.455714" y="134.418531" style="fill: #ff0000; stroke: #ff0000"/>
     <use xlink:href="#m44d448e445" x="193.134776" y="131.972021" style="fill: #ff0000; stroke: #ff0000"/>
     <use xlink:href="#m44d448e445" x="156.437123" y="105.060408" style="fill: #ff0000; stroke: #ff0000"/>
     <use xlink:href="#m44d448e445" x="210.260347" y="151.544102" style="fill: #ff0000; stroke: #ff0000"/>
     <use xlink:href="#m44d448e445" x="129.52551" y="168.669674" style="fill: #ff0000; stroke: #ff0000"/>
     <use xlink:href="#m44d448e445" x="117.292959" y="176.009204" style="fill: #ff0000; stroke: #ff0000"/>
     <use xlink:href="#m44d448e445" x="92.827857" y="176.009204" style="fill: #ff0000; stroke: #ff0000"/>
     <use xlink:href="#m44d448e445" x="112.399939" y="171.116184" style="fill: #ff0000; stroke: #ff0000"/>
     <use xlink:href="#m44d448e445" x="85.488327" y="105.060408" style="fill: #ff0000; stroke: #ff0000"/>
     <use xlink:href="#m44d448e445" x="78.148796" y="117.292959" style="fill: #ff0000; stroke: #ff0000"/>
     <use xlink:href="#m44d448e445" x="109.953429" y="129.52551" style="fill: #ff0000; stroke: #ff0000"/>
     <use xlink:href="#m44d448e445" x="102.613898" y="141.758061" style="fill: #ff0000; stroke: #ff0000"/>
    </g>
   </g>
   <g id="PathCollection_4">
    <defs>
     <path id="m0ae765c976" d="M 0 -3 
L -3 3 
L 3 3 
z
" style="stroke: #ff0000"/>
    </defs>
    <g clip-path="url(#p4295879790)">
     <use xlink:href="#m0ae765c976" x="80.595306" y="31.665102" style="fill: #ff0000; stroke: #ff0000"/>
    </g>
   </g>
   <g id="PathCollection_5">
    <defs>
     <path id="m14c2cb17cb" d="M 0 1.06066 
C 0.28129 1.06066 0.551098 0.948902 0.75 0.75 
C 0.948902 0.551098 1.06066 0.28129 1.06066 0 
C 1.06066 -0.28129 0.948902 -0.551098 0.75 -0.75 
C 0.551098 -0.948902 0.28129 -1.06066 0 -1.06066 
C -0.28129 -1.06066 -0.551098 -0.948902 -0.75 -0.75 
C -0.948902 -0.551098 -1.06066 -0.28129 -1.06066 0 
C -1.06066 0.28129 -0.948902 0.551098 -0.75 0.75 
C -0.551098 0.948902 -0.28129 1.06066 0 1.06066 
z
" style="stroke: #0000ff"/>
    </defs>
    <g clip-path="url(#p4295879790)">
     <use xlink:href="#m14c2cb17cb" x="300.781225" y="251.851021" style="fill: #0000ff; stroke: #0000ff"/>
     <use xlink:href="#m14c2cb17cb" x="276.316123" y="276.316123" style="fill: #0000ff; stroke: #0000ff"/>
     <use xlink:href="#m14c2cb17cb" x="288.548674" y="239.61847" style="fill: #0000ff; stroke: #0000ff"/>
     <use xlink:href="#m14c2cb17cb" x="288.548674" y="268.976592" style="fill: #0000ff; stroke: #0000ff"/>
     <use xlink:href="#m14c2cb17cb" x="264.083572" y="244.51149" style="fill: #0000ff; stroke: #0000ff"/>
     <use xlink:href="#m14c2cb17cb" x="264.083572" y="266.530082" style="fill: #0000ff; stroke: #0000ff"/>
     <use xlink:href="#m14c2cb17cb" x="215.153368" y="246.958" style="fill: #0000ff; stroke: #0000ff"/>
     <use xlink:href="#m14c2cb17cb" x="239.61847" y="264.083572" style="fill: #0000ff; stroke: #0000ff"/>
     <use xlink:href="#m14c2cb17cb" x="313.013776" y="227.385919" style="fill: #0000ff; stroke: #0000ff"/>
     <use xlink:href="#m14c2cb17cb" x="202.920817" y="215.153368" style="fill: #0000ff; stroke: #0000ff"/>
     <use xlink:href="#m14c2cb17cb" x="166.223163" y="227.385919" style="fill: #0000ff; stroke: #0000ff"/>
     <use xlink:href="#m14c2cb17cb" x="180.902225" y="222.492898" style="fill: #0000ff; stroke: #0000ff"/>
     <use xlink:href="#m14c2cb17cb" x="224.939408" y="205.367327" style="fill: #0000ff; stroke: #0000ff"/>
     <use xlink:href="#m14c2cb17cb" x="251.851021" y="227.385919" style="fill: #0000ff; stroke: #0000ff"/>
     <use xlink:href="#m14c2cb17cb" x="227.385919" y="239.61847" style="fill: #0000ff; stroke: #0000ff"/>
     <use xlink:href="#m14c2cb17cb" x="273.869613" y="222.492898" style="fill: #0000ff; stroke: #0000ff"/>
     <use xlink:href="#m14c2cb17cb" x="234.725449" y="229.832429" style="fill: #0000ff; stroke: #0000ff"/>
     <use xlink:href="#m14c2cb17cb" x="141.758061" y="207.813837" style="fill: #0000ff; stroke: #0000ff"/>
     <use xlink:href="#m14c2cb17cb" x="144.204572" y="200.474306" style="fill: #0000ff; stroke: #0000ff"/>
     <use xlink:href="#m14c2cb17cb" x="190.688266" y="180.902225" style="fill: #0000ff; stroke: #0000ff"/>
     <use xlink:href="#m14c2cb17cb" x="205.367327" y="188.241755" style="fill: #0000ff; stroke: #0000ff"/>
     <use xlink:href="#m14c2cb17cb" x="149.097592" y="176.009204" style="fill: #0000ff; stroke: #0000ff"/>
     <use xlink:href="#m14c2cb17cb" x="242.06498" y="178.455714" style="fill: #0000ff; stroke: #0000ff"/>
     <use xlink:href="#m14c2cb17cb" x="207.813837" y="207.813837" style="fill: #0000ff; stroke: #0000ff"/>
     <use xlink:href="#m14c2cb17cb" x="173.562694" y="202.920817" style="fill: #0000ff; stroke: #0000ff"/>
     <use xlink:href="#m14c2cb17cb" x="153.990612" y="239.61847" style="fill: #0000ff; stroke: #0000ff"/>
     <use xlink:href="#m14c2cb17cb" x="156.437123" y="215.153368" style="fill: #0000ff; stroke: #0000ff"/>
     <use xlink:href="#m14c2cb17cb" x="158.883633" y="202.920817" style="fill: #0000ff; stroke: #0000ff"/>
     <use xlink:href="#m14c2cb17cb" x="163.776653" y="190.688266" style="fill: #0000ff; stroke: #0000ff"/>
     <use xlink:href="#m14c2cb17cb" x="178.455714" y="239.61847" style="fill: #0000ff; stroke: #0000ff"/>
     <use xlink:href="#m14c2cb17cb" x="205.367327" y="239.61847" style="fill: #0000ff; stroke: #0000ff"/>
     <use xlink:href="#m14c2cb17cb" x="149.097592" y="244.51149" style="fill: #0000ff; stroke: #0000ff"/>
     <use xlink:href="#m14c2cb17cb" x="151.544102" y="222.492898" style="fill: #0000ff; stroke: #0000ff"/>
    </g>
   </g>
   <g id="PathCollection_6">
    <defs>
     <path id="me333a18d58" d="M 0 -3 
L -3 3 
L 3 3 
z
" style="stroke: #0000ff"/>
    </defs>
    <g clip-path="url(#p4295879790)">
     <use xlink:href="#me333a18d58" x="300.781225" y="251.851021" style="fill: #0000ff; stroke: #0000ff"/>
    </g>
   </g>
   <g id="PathCollection_7">
    <g clip-path="url(#p4295879790)">
     <use xlink:href="#m14c2cb17cb" x="202.920817" y="166.223163" style="fill: #0000ff; stroke: #0000ff"/>
    </g>
   </g>
   <g id="PathCollection_8">
    <defs>
     <path id="mbe07092838" d="M 0 2 
C 0.530406 2 1.03916 1.789267 1.414214 1.414214 
C 1.789267 1.03916 2 0.530406 2 0 
C 2 -0.530406 1.789267 -1.03916 1.414214 -1.414214 
C 1.03916 -1.789267 0.530406 -2 0 -2 
C -0.530406 -2 -1.03916 -1.789267 -1.414214 -1.414214 
C -1.789267 -1.03916 -2 -0.530406 -2 0 
C -2 0.530406 -1.789267 1.03916 -1.414214 1.414214 
C -1.03916 1.789267 -0.530406 2 0 2 
z
" style="stroke: #ff0000"/>
    </defs>
    <g clip-path="url(#p4295879790)">
     <use xlink:href="#mbe07092838" x="129.52551" y="168.669674" style="fill: #ff0000; stroke: #ff0000"/>
    </g>
   </g>
   <g id="PathCollection_9">
    <defs>
     <path id="m7f7d6b6a15" d="M 0 2 
C 0.530406 2 1.03916 1.789267 1.414214 1.414214 
C 1.789267 1.03916 2 0.530406 2 0 
C 2 -0.530406 1.789267 -1.03916 1.414214 -1.414214 
C 1.03916 -1.789267 0.530406 -2 0 -2 
C -0.530406 -2 -1.03916 -1.789267 -1.414214 -1.414214 
C -1.789267 -1.03916 -2 -0.530406 -2 0 
C -2 0.530406 -1.789267 1.03916 -1.414214 1.414214 
C -1.03916 1.789267 -0.530406 2 0 2 
z
" style="stroke: #0000ff"/>
    </defs>
    <g clip-path="url(#p4295879790)">
     <use xlink:href="#m7f7d6b6a15" x="202.920817" y="166.223163" style="fill: #0000ff; stroke: #0000ff"/>
    </g>
   </g>
   <g id="patch_2">
    <path d="M 129.52551 200.474306 
C 137.960198 200.474306 146.050557 197.12317 152.014782 191.158945 
C 157.979006 185.194721 161.330143 177.104361 161.330143 168.669674 
C 161.330143 160.234986 157.979006 152.144627 152.014782 146.180402 
C 146.050557 140.216178 137.960198 136.865041 129.52551 136.865041 
C 121.090823 136.865041 113.000463 140.216178 107.036239 146.180402 
C 101.072014 152.144627 97.720878 160.234986 97.720878 168.669674 
C 97.720878 177.104361 101.072014 185.194721 107.036239 191.158945 
C 113.000463 197.12317 121.090823 200.474306 129.52551 200.474306 
L 129.52551 200.474306 
z
" clip-path="url(#p4295879790)" style="fill: none; opacity: 0.7; stroke: #ff0000; stroke-linejoin: miter"/>
   </g>
   <g id="patch_3">
    <path d="M 202.920817 198.027796 
C 211.355504 198.027796 219.445864 194.676659 225.410088 188.712435 
C 231.374313 182.74821 234.725449 174.657851 234.725449 166.223163 
C 234.725449 157.788476 231.374313 149.698117 225.410088 143.733892 
C 219.445864 137.769668 211.355504 134.418531 202.920817 134.418531 
C 194.486129 134.418531 186.39577 137.769668 180.431545 143.733892 
C 174.467321 149.698117 171.116184 157.788476 171.116184 166.223163 
C 171.116184 174.657851 174.467321 182.74821 180.431545 188.712435 
C 186.39577 194.676659 194.486129 198.027796 202.920817 198.027796 
L 202.920817 198.027796 
z
" clip-path="url(#p4295879790)" style="fill: none; opacity: 0.7; stroke: #0000ff; stroke-linejoin: miter"/>
   </g>
   <g id="text_1">
    <!-- 聚类中心 -->
    <g transform="translate(24.325571 322.529401) scale(0.12 -0.12)">
     <defs>
      <path id="SimSun-805a" d="M 2525 1425 
L 2275 1375 
Q 1375 750 725 475 
L 700 575 
Q 1075 800 1462 1125 
Q 1850 1450 2125 1800 
L 2525 1425 
z
M 6075 225 
Q 5675 150 5600 -125 
Q 4675 175 4187 675 
Q 3700 1175 3400 2000 
L 3400 125 
Q 3400 -50 3425 -450 
L 3050 -625 
Q 3075 275 3075 2000 
Q 2575 1950 1475 1875 
L 1475 1975 
Q 2325 2075 2700 2137 
Q 3075 2200 3562 2300 
Q 4050 2400 4575 2625 
L 4825 2200 
Q 4300 2150 4025 2100 
Q 3750 2050 3525 2025 
Q 3800 1400 4225 975 
Q 4475 1200 4712 1487 
Q 4950 1775 5075 1975 
L 5450 1550 
L 5200 1500 
Q 4575 1050 4325 875 
Q 4600 650 5050 487 
Q 5500 325 6075 300 
L 6075 225 
z
M 2900 675 
L 2650 650 
Q 2300 400 1850 150 
Q 1400 -100 850 -300 
L 825 -200 
Q 1350 50 1762 362 
Q 2175 675 2550 1100 
L 2900 675 
z
M 3750 3150 
L 3125 2950 
Q 3125 2625 3150 2475 
L 2775 2325 
Q 2800 2600 2800 2875 
Q 2050 2700 1575 2550 
Q 1100 2400 825 2250 
L 600 2650 
Q 950 2700 1275 2750 
L 1275 4775 
Q 1000 4775 725 4700 
L 500 4925 
L 3225 4925 
L 3575 5225 
L 4000 4775 
L 3125 4775 
L 3125 3100 
L 3725 3225 
L 3750 3150 
z
M 1600 4775 
L 1600 4225 
L 2800 4225 
L 2800 4775 
L 1600 4775 
z
M 1600 4075 
L 1600 3575 
L 2800 3575 
L 2800 4075 
L 1600 4075 
z
M 1600 2800 
L 2800 3025 
L 2800 3425 
L 1600 3425 
L 1600 2800 
z
M 5600 4325 
Q 5225 3825 4975 3575 
Q 5525 3250 5662 3062 
Q 5800 2875 5762 2725 
Q 5725 2575 5637 2562 
Q 5550 2550 5375 2800 
Q 5200 3050 4800 3350 
Q 4200 2825 3350 2550 
L 3325 2625 
Q 4075 3000 4575 3500 
Q 4100 3800 3650 4050 
L 3675 4125 
Q 4025 4000 4725 3700 
Q 4975 3975 5300 4450 
L 4275 4450 
Q 3950 4450 3675 4375 
L 3450 4600 
L 5275 4600 
L 5500 4825 
L 5850 4475 
L 5600 4325 
z
" transform="scale(0.015625)"/>
      <path id="SimSun-7c7b" d="M 1375 4925 
L 1425 5000 
Q 1975 4775 2200 4612 
Q 2425 4450 2412 4287 
Q 2400 4125 2325 4012 
Q 2250 3900 2200 3900 
Q 2125 3900 2025 4150 
Q 1850 4500 1375 4925 
z
M 3075 3750 
L 3075 4825 
Q 3075 5000 3050 5225 
L 3700 4975 
L 3425 4775 
L 3425 3750 
L 3900 3750 
Q 4475 4525 4750 5075 
L 5250 4650 
L 4975 4575 
Q 4700 4375 4050 3750 
L 5275 3750 
L 5625 4075 
L 6075 3600 
L 3425 3600 
L 3425 3450 
Q 5000 3025 5300 2850 
Q 5600 2675 5625 2550 
Q 5650 2425 5650 2375 
Q 5650 2250 5612 2175 
Q 5575 2100 5550 2100 
Q 5425 2100 5150 2400 
Q 4775 2775 3425 3350 
Q 3425 2575 3450 2400 
L 3050 2250 
Q 3075 2575 3075 3575 
Q 2625 3000 2037 2575 
Q 1450 2150 400 1850 
L 375 1925 
Q 1300 2325 1812 2725 
Q 2325 3125 2675 3600 
L 1250 3600 
Q 925 3600 650 3525 
L 425 3750 
L 3075 3750 
z
M 3250 1775 
Q 3200 1625 3150 1500 
L 5300 1500 
L 5650 1850 
L 6100 1350 
L 3500 1350 
Q 3925 750 4550 375 
Q 5175 0 6125 -100 
L 6125 -200 
Q 5650 -225 5525 -550 
Q 4700 -225 4137 325 
Q 3575 875 3375 1350 
L 3125 1350 
Q 2825 375 2175 -37 
Q 1525 -450 300 -650 
L 275 -575 
Q 1175 -350 1825 62 
Q 2475 475 2750 1350 
L 1075 1350 
Q 750 1350 475 1275 
L 250 1500 
L 2775 1500 
Q 2825 1850 2850 2225 
L 3475 1925 
L 3250 1775 
z
" transform="scale(0.015625)"/>
      <path id="SimSun-4e2d" d="M 3325 3625 
L 3325 1975 
L 5125 1975 
L 5125 3625 
L 3325 3625 
z
M 2950 3775 
Q 2950 4750 2925 5250 
L 3525 4975 
L 3325 4775 
L 3325 3775 
L 5075 3775 
L 5275 4075 
L 5700 3750 
L 5475 3550 
L 5475 2100 
Q 5475 1825 5500 1525 
L 5125 1375 
L 5125 1825 
L 3325 1825 
Q 3325 -75 3350 -400 
L 2925 -625 
Q 2950 -50 2950 1825 
L 1225 1825 
L 1225 1525 
L 850 1325 
Q 875 1775 875 2625 
Q 875 3475 850 4000 
L 1225 3775 
L 2950 3775 
z
M 1225 3625 
L 1225 1975 
L 2950 1975 
L 2950 3625 
L 1225 3625 
z
" transform="scale(0.015625)"/>
      <path id="SimSun-5fc3" d="M 2750 4875 
Q 3350 4525 3625 4275 
Q 3900 4025 3862 3762 
Q 3825 3500 3725 3412 
Q 3625 3325 3575 3325 
Q 3450 3325 3350 3675 
Q 3200 4125 2675 4800 
L 2750 4875 
z
M 2025 3800 
L 2650 3475 
L 2425 3275 
L 2425 725 
Q 2400 225 2775 200 
L 4200 200 
Q 4475 225 4537 625 
Q 4600 1025 4625 1675 
L 4750 1675 
Q 4750 1000 4812 687 
Q 4875 375 5150 275 
Q 4950 -125 4425 -125 
L 2575 -125 
Q 2000 -100 2050 625 
L 2050 2675 
Q 2050 3325 2025 3800 
z
M 1225 2900 
L 1350 2900 
Q 1350 2100 1300 1725 
Q 1250 1350 1087 1225 
Q 925 1100 775 1100 
Q 700 1100 587 1137 
Q 475 1175 475 1250 
Q 475 1375 700 1625 
Q 1025 2000 1225 2900 
z
M 4850 2925 
L 4925 2975 
Q 5675 2300 5825 2050 
Q 5975 1800 5925 1550 
Q 5875 1300 5775 1237 
Q 5675 1175 5625 1175 
Q 5500 1175 5450 1525 
Q 5375 1975 4850 2925 
z
" transform="scale(0.015625)"/>
     </defs>
     <use xlink:href="#SimSun-805a"/>
     <use xlink:href="#SimSun-7c7b" x="100"/>
     <use xlink:href="#SimSun-4e2d" x="200"/>
     <use xlink:href="#SimSun-5fc3" x="300"/>
    </g>
   </g>
   <g id="text_2">
    <!-- 聚类中心 -->
    <g transform="translate(85.488327 43.627237) scale(0.12 -0.12)">
     <use xlink:href="#SimSun-805a"/>
     <use xlink:href="#SimSun-7c7b" x="100"/>
     <use xlink:href="#SimSun-4e2d" x="200"/>
     <use xlink:href="#SimSun-5fc3" x="300"/>
    </g>
   </g>
   <g id="text_3">
    <!-- 聚类中心 -->
    <g transform="translate(305.674245 263.813156) scale(0.12 -0.12)">
     <use xlink:href="#SimSun-805a"/>
     <use xlink:href="#SimSun-7c7b" x="100"/>
     <use xlink:href="#SimSun-4e2d" x="200"/>
     <use xlink:href="#SimSun-5fc3" x="300"/>
    </g>
   </g>
   <g id="text_4">
    <!-- $c_1$ -->
    <g style="fill: #ff0000" transform="translate(129.52551 179.779674) scale(0.16 -0.16)">
     <defs>
      <path id="STIXGeneral-Italic-63" d="M 2240 685 
L 2342 621 
Q 2048 250 1769 90 
Q 1491 -70 1133 -70 
Q 678 -70 435 179 
Q 192 429 192 915 
Q 192 1344 409 1744 
Q 627 2144 979 2432 
Q 1472 2822 2048 2822 
Q 2342 2822 2531 2675 
Q 2720 2528 2720 2304 
Q 2720 2176 2630 2086 
Q 2541 1997 2413 1997 
Q 2285 1997 2224 2070 
Q 2163 2144 2163 2253 
Q 2163 2310 2211 2403 
Q 2259 2496 2259 2560 
Q 2259 2688 2022 2688 
Q 1619 2688 1325 2381 
Q 742 1766 742 890 
Q 742 544 889 352 
Q 1037 160 1312 160 
Q 1562 160 1766 281 
Q 1971 403 2240 685 
z
" transform="scale(0.015625)"/>
      <path id="STIXGeneral-Regular-31" d="M 2522 0 
L 755 0 
L 755 96 
Q 1107 115 1235 227 
Q 1363 339 1363 608 
L 1363 3482 
Q 1363 3795 1171 3795 
Q 1082 3795 883 3718 
L 710 3654 
L 710 3744 
L 1856 4326 
L 1914 4307 
L 1914 486 
Q 1914 275 2042 185 
Q 2170 96 2522 96 
L 2522 0 
z
" transform="scale(0.015625)"/>
     </defs>
     <use xlink:href="#STIXGeneral-Italic-63" transform="translate(0 0.90625)"/>
     <use xlink:href="#STIXGeneral-Regular-31" transform="translate(44.399994 -12.321875) scale(0.7)"/>
    </g>
   </g>
   <g id="text_5">
    <!-- $c_2$ -->
    <g style="fill: #0000ff" transform="translate(202.920817 177.333163) scale(0.16 -0.16)">
     <defs>
      <path id="STIXGeneral-Regular-32" d="M 3034 877 
L 2688 0 
L 186 0 
L 186 77 
L 1325 1286 
Q 1773 1754 1965 2144 
Q 2157 2534 2157 2950 
Q 2157 3379 1920 3616 
Q 1683 3853 1267 3853 
Q 922 3853 720 3673 
Q 518 3494 326 3021 
L 192 3053 
Q 301 3648 630 3987 
Q 960 4326 1523 4326 
Q 2054 4326 2380 4006 
Q 2707 3686 2707 3200 
Q 2707 2477 1888 1613 
L 832 486 
L 2330 486 
Q 2541 486 2665 569 
Q 2790 653 2944 915 
L 3034 877 
z
" transform="scale(0.015625)"/>
     </defs>
     <use xlink:href="#STIXGeneral-Italic-63" transform="translate(0 0.90625)"/>
     <use xlink:href="#STIXGeneral-Regular-32" transform="translate(44.399994 -12.321875) scale(0.7)"/>
    </g>
   </g>
   <g id="text_6">
    <!-- k = 5 -->
    <g transform="translate(251.851021 67.240204) scale(0.16 -0.16)">
     <defs>
      <path id="TimesNewRomanPSMT-6b" d="M 1047 4444 
L 1047 1597 
L 1775 2259 
Q 2006 2472 2044 2528 
Q 2069 2566 2069 2603 
Q 2069 2666 2017 2711 
Q 1966 2756 1847 2763 
L 1847 2863 
L 3091 2863 
L 3091 2763 
Q 2834 2756 2664 2684 
Q 2494 2613 2291 2428 
L 1556 1750 
L 2291 822 
Q 2597 438 2703 334 
Q 2853 188 2966 144 
Q 3044 113 3238 113 
L 3238 0 
L 1847 0 
L 1847 113 
Q 1966 116 2008 148 
Q 2050 181 2050 241 
Q 2050 313 1925 472 
L 1047 1594 
L 1047 644 
Q 1047 366 1086 278 
Q 1125 191 1197 153 
Q 1269 116 1509 113 
L 1509 0 
L 53 0 
L 53 113 
Q 272 113 381 166 
Q 447 200 481 272 
Q 528 375 528 628 
L 528 3234 
Q 528 3731 506 3842 
Q 484 3953 434 3995 
Q 384 4038 303 4038 
Q 238 4038 106 3984 
L 53 4094 
L 903 4444 
L 1047 4444 
z
" transform="scale(0.015625)"/>
      <path id="TimesNewRomanPSMT-20" transform="scale(0.015625)"/>
      <path id="TimesNewRomanPSMT-3d" d="M 116 2759 
L 3488 2759 
L 3488 2503 
L 116 2503 
L 116 2759 
z
M 116 1741 
L 3488 1741 
L 3488 1484 
L 116 1484 
L 116 1741 
z
" transform="scale(0.015625)"/>
      <path id="TimesNewRomanPSMT-35" d="M 2778 4238 
L 2534 3706 
L 1259 3706 
L 981 3138 
Q 1809 3016 2294 2522 
Q 2709 2097 2709 1522 
Q 2709 1188 2573 903 
Q 2438 619 2231 419 
Q 2025 219 1772 97 
Q 1413 -75 1034 -75 
Q 653 -75 479 54 
Q 306 184 306 341 
Q 306 428 378 495 
Q 450 563 559 563 
Q 641 563 702 538 
Q 763 513 909 409 
Q 1144 247 1384 247 
Q 1750 247 2026 523 
Q 2303 800 2303 1197 
Q 2303 1581 2056 1914 
Q 1809 2247 1375 2428 
Q 1034 2569 447 2591 
L 1259 4238 
L 2778 4238 
z
" transform="scale(0.015625)"/>
     </defs>
     <use xlink:href="#TimesNewRomanPSMT-6b"/>
     <use xlink:href="#TimesNewRomanPSMT-20" x="50"/>
     <use xlink:href="#TimesNewRomanPSMT-3d" x="75"/>
     <use xlink:href="#TimesNewRomanPSMT-20" x="131.396484"/>
     <use xlink:href="#TimesNewRomanPSMT-35" x="156.396484"/>
    </g>
   </g>
   <g id="text_7">
    <!-- $\bigtriangleup$ = 聚类中心 -->
    <g transform="translate(251.851021 90.555306) scale(0.12 -0.12)">
     <defs>
      <path id="STIXGeneral-Regular-25b3" d="M 7104 -813 
L 224 -813 
L 3667 5190 
L 7104 -813 
z
M 6368 -390 
L 3667 4339 
L 954 -390 
L 6368 -390 
z
" transform="scale(0.015625)"/>
      <path id="SimSun-20" d="M 0 0 
Q 0 0 0 0 
z
" transform="scale(0.015625)"/>
      <path id="SimSun-3d" d="M 200 2825 
L 200 3050 
L 2975 3050 
L 2975 2825 
L 200 2825 
z
M 200 1550 
L 200 1775 
L 2975 1775 
L 2975 1550 
L 200 1550 
z
" transform="scale(0.015625)"/>
     </defs>
     <use xlink:href="#STIXGeneral-Regular-25b3" transform="translate(0 0.96875)"/>
     <use xlink:href="#SimSun-20" transform="translate(114.499985 0.96875)"/>
     <use xlink:href="#SimSun-3d" transform="translate(164.499985 0.96875)"/>
     <use xlink:href="#SimSun-20" transform="translate(214.499985 0.96875)"/>
     <use xlink:href="#SimSun-805a" transform="translate(264.499985 0.96875)"/>
     <use xlink:href="#SimSun-7c7b" transform="translate(364.499985 0.96875)"/>
     <use xlink:href="#SimSun-4e2d" transform="translate(464.499985 0.96875)"/>
     <use xlink:href="#SimSun-5fc3" transform="translate(564.499985 0.96875)"/>
    </g>
   </g>
   <g id="text_8">
    <!-- $\cdot$ = 样本点 -->
    <g transform="translate(251.851021 114.793533) scale(0.12 -0.12)">
     <defs>
      <path id="STIXGeneral-Regular-22c5" d="M 1187 1888 
Q 1299 1773 1299 1619 
Q 1299 1466 1187 1350 
Q 1075 1235 921 1235 
Q 768 1235 649 1353 
Q 531 1472 531 1619 
Q 531 1766 649 1884 
Q 768 2003 921 2003 
Q 1075 2003 1187 1888 
z
" transform="scale(0.015625)"/>
      <path id="SimSun-6837" d="M 2800 5025 
L 2850 5100 
Q 3625 4675 3700 4512 
Q 3775 4350 3775 4300 
Q 3775 4175 3675 4037 
Q 3575 3900 3550 3900 
Q 3450 3900 3375 4125 
Q 3250 4475 2800 5025 
z
M 4275 1325 
Q 4275 75 4300 -475 
L 3900 -625 
Q 3925 275 3925 1325 
L 3075 1325 
Q 2750 1325 2475 1250 
L 2250 1475 
L 3925 1475 
L 3925 2525 
L 3500 2525 
Q 3175 2525 2900 2450 
L 2675 2675 
L 3925 2675 
L 3925 3600 
L 3475 3600 
Q 3150 3600 2875 3525 
L 2650 3750 
L 4275 3750 
Q 4725 4600 4875 5250 
L 5400 4900 
Q 5150 4775 4900 4425 
Q 4650 4075 4425 3750 
L 5150 3750 
L 5450 4050 
L 5900 3600 
L 4275 3600 
L 4275 2675 
L 4975 2675 
L 5275 2975 
L 5725 2525 
L 4275 2525 
L 4275 1475 
L 5275 1475 
L 5600 1800 
L 6075 1325 
L 4275 1325 
z
M 1650 750 
Q 1650 400 1675 -500 
L 1275 -650 
Q 1300 825 1300 2375 
Q 875 1375 300 725 
L 225 775 
Q 925 1875 1300 3600 
L 1125 3600 
Q 800 3600 525 3525 
L 300 3750 
L 1300 3750 
Q 1300 4375 1275 5250 
L 1850 4950 
L 1650 4775 
L 1650 3750 
L 1975 3750 
L 2250 4025 
L 2675 3600 
L 1650 3600 
L 1650 2925 
Q 2125 2700 2300 2550 
Q 2475 2400 2475 2250 
Q 2475 2150 2412 2000 
Q 2350 1850 2300 1850 
Q 2225 1850 2125 2075 
Q 1950 2450 1650 2775 
L 1650 750 
z
" transform="scale(0.015625)"/>
      <path id="SimSun-672c" d="M 3400 850 
Q 3400 -50 3425 -525 
L 3000 -675 
Q 3025 425 3025 850 
L 1975 850 
L 1750 800 
L 1550 1000 
L 3025 1000 
L 3025 3200 
Q 2075 1250 300 325 
L 275 425 
Q 1925 1550 2800 3625 
L 1325 3625 
Q 1000 3625 725 3550 
L 500 3775 
L 3025 3775 
Q 3025 4450 3000 5250 
L 3650 4950 
L 3400 4750 
L 3400 3775 
L 5100 3775 
L 5450 4125 
L 5950 3625 
L 3650 3625 
Q 4475 1550 6100 1025 
L 6100 925 
Q 5625 900 5550 625 
Q 4200 1500 3525 3625 
L 3400 3625 
L 3400 1000 
L 4150 1000 
L 4450 1300 
L 4900 850 
L 3400 850 
z
" transform="scale(0.015625)"/>
      <path id="SimSun-70b9" d="M 1875 2900 
L 1875 1525 
L 4625 1525 
L 4625 2900 
L 1875 2900 
z
M 1475 925 
Q 1500 1450 1500 2050 
Q 1500 2650 1475 3250 
L 1875 3050 
L 2950 3050 
Q 2950 4725 2925 5225 
L 3500 5000 
L 3300 4800 
L 3300 4200 
L 4925 4200 
L 5250 4525 
L 5700 4050 
L 3300 4050 
L 3300 3050 
L 4575 3050 
L 4825 3300 
L 5200 2925 
L 4975 2750 
Q 4975 1575 5000 1150 
L 4625 1000 
L 4625 1375 
L 1875 1375 
L 1875 1075 
L 1475 925 
z
M 1350 800 
L 1450 800 
Q 1300 -175 1137 -337 
Q 975 -500 850 -500 
Q 775 -500 675 -437 
Q 575 -375 575 -300 
Q 575 -225 700 -125 
Q 925 50 1037 200 
Q 1150 350 1350 800 
z
M 2225 675 
L 2275 750 
Q 2800 350 2862 187 
Q 2925 25 2925 -50 
Q 2925 -225 2812 -337 
Q 2700 -450 2675 -450 
Q 2575 -450 2550 -200 
Q 2500 175 2225 675 
z
M 3550 700 
L 3600 775 
Q 4075 425 4187 225 
Q 4300 25 4300 -50 
Q 4300 -175 4187 -300 
Q 4075 -425 4050 -425 
Q 3950 -425 3900 -125 
Q 3825 300 3550 700 
z
M 4900 775 
L 4950 850 
Q 5450 500 5637 250 
Q 5825 0 5825 -125 
Q 5825 -250 5725 -375 
Q 5625 -500 5600 -500 
Q 5500 -500 5425 -200 
Q 5300 225 4900 775 
z
" transform="scale(0.015625)"/>
     </defs>
     <use xlink:href="#STIXGeneral-Regular-22c5" transform="translate(0 0.96875)"/>
     <use xlink:href="#SimSun-20" transform="translate(28.599991 0.96875)"/>
     <use xlink:href="#SimSun-3d" transform="translate(78.599991 0.96875)"/>
     <use xlink:href="#SimSun-20" transform="translate(128.599991 0.96875)"/>
     <use xlink:href="#SimSun-6837" transform="translate(178.599991 0.96875)"/>
     <use xlink:href="#SimSun-672c" transform="translate(278.599991 0.96875)"/>
     <use xlink:href="#SimSun-70b9" transform="translate(378.599991 0.96875)"/>
    </g>
   </g>
  </g>
 </g>
 <defs>
  <clipPath id="p4295879790">
   <rect x="7.2" y="7.2" width="318.046327" height="318.046327"/>
  </clipPath>
 </defs>
</svg>
