<?xml version="1.0" encoding="utf-8" standalone="no"?>
<!DOCTYPE svg PUBLIC "-//W3C//DTD SVG 1.1//EN"
  "http://www.w3.org/Graphics/SVG/1.1/DTD/svg11.dtd">
<svg xmlns:xlink="http://www.w3.org/1999/xlink" width="360.874245pt" height="332.446327pt" viewBox="0 0 360.874245 332.446327" xmlns="http://www.w3.org/2000/svg" version="1.1">
 <metadata>
  <rdf:RDF xmlns:dc="http://purl.org/dc/elements/1.1/" xmlns:cc="http://creativecommons.org/ns#" xmlns:rdf="http://www.w3.org/1999/02/22-rdf-syntax-ns#">
   <cc:Work>
    <dc:type rdf:resource="http://purl.org/dc/dcmitype/StillImage"/>
    <dc:date>2024-02-25T16:52:02.247794</dc:date>
    <dc:format>image/svg+xml</dc:format>
    <dc:creator>
     <cc:Agent>
      <dc:title>Matplotlib v3.8.0, https://matplotlib.org/</dc:title>
     </cc:Agent>
    </dc:creator>
   </cc:Work>
  </rdf:RDF>
 </metadata>
 <defs>
  <style type="text/css">*{stroke-linejoin: round; stroke-linecap: butt}</style>
 </defs>
 <g id="figure_1">
  <g id="patch_1">
   <path d="M 0 332.446327 
L 360.874245 332.446327 
L 360.874245 0 
L 0 0 
z
" style="fill: #ffffff"/>
  </g>
  <g id="axes_1">
   <g id="PathCollection_1">
    <defs>
     <path id="me634bee510" d="M 0 1.06066 
C 0.28129 1.06066 0.551098 0.948902 0.75 0.75 
C 0.948902 0.551098 1.06066 0.28129 1.06066 0 
C 1.06066 -0.28129 0.948902 -0.551098 0.75 -0.75 
C 0.551098 -0.948902 0.28129 -1.06066 0 -1.06066 
C -0.28129 -1.06066 -0.551098 -0.948902 -0.75 -0.75 
C -0.948902 -0.551098 -1.06066 -0.28129 -1.06066 0 
C -1.06066 0.28129 -0.948902 0.551098 -0.75 0.75 
C -0.551098 0.948902 -0.28129 1.06066 0 1.06066 
z
" style="stroke: #008000"/>
    </defs>
    <g clip-path="url(#pa7503a6961)">
     <use xlink:href="#me634bee510" x="19.432551" y="310.567266" style="fill: #008000; stroke: #008000"/>
     <use xlink:href="#me634bee510" x="14.539531" y="295.888204" style="fill: #008000; stroke: #008000"/>
     <use xlink:href="#me634bee510" x="31.665102" y="288.548674" style="fill: #008000; stroke: #008000"/>
     <use xlink:href="#me634bee510" x="24.325571" y="276.316123" style="fill: #008000; stroke: #008000"/>
     <use xlink:href="#me634bee510" x="56.130204" y="308.120755" style="fill: #008000; stroke: #008000"/>
     <use xlink:href="#me634bee510" x="26.772082" y="305.674245" style="fill: #008000; stroke: #008000"/>
     <use xlink:href="#me634bee510" x="61.023225" y="227.385919" style="fill: #008000; stroke: #008000"/>
     <use xlink:href="#me634bee510" x="43.897653" y="239.61847" style="fill: #008000; stroke: #008000"/>
     <use xlink:href="#me634bee510" x="68.362755" y="246.958" style="fill: #008000; stroke: #008000"/>
     <use xlink:href="#me634bee510" x="58.576714" y="276.316123" style="fill: #008000; stroke: #008000"/>
     <use xlink:href="#me634bee510" x="43.897653" y="227.385919" style="fill: #008000; stroke: #008000"/>
     <use xlink:href="#me634bee510" x="39.004633" y="237.171959" style="fill: #008000; stroke: #008000"/>
     <use xlink:href="#me634bee510" x="41.451143" y="251.851021" style="fill: #008000; stroke: #008000"/>
     <use xlink:href="#me634bee510" x="21.879061" y="264.083572" style="fill: #008000; stroke: #008000"/>
    </g>
   </g>
   <g id="PathCollection_2">
    <defs>
     <path id="me21a66df2b" d="M 0 -3 
L -3 3 
L 3 3 
z
" style="stroke: #008000"/>
    </defs>
    <g clip-path="url(#pa7503a6961)">
     <use xlink:href="#me21a66df2b" x="19.432551" y="310.567266" style="fill: #008000; stroke: #008000"/>
    </g>
   </g>
   <g id="PathCollection_3">
    <defs>
     <path id="me810ea8e5f" d="M 0 1.06066 
C 0.28129 1.06066 0.551098 0.948902 0.75 0.75 
C 0.948902 0.551098 1.06066 0.28129 1.06066 0 
C 1.06066 -0.28129 0.948902 -0.551098 0.75 -0.75 
C 0.551098 -0.948902 0.28129 -1.06066 0 -1.06066 
C -0.28129 -1.06066 -0.551098 -0.948902 -0.75 -0.75 
C -0.948902 -0.551098 -1.06066 -0.28129 -1.06066 0 
C -1.06066 0.28129 -0.948902 0.551098 -0.75 0.75 
C -0.551098 0.948902 -0.28129 1.06066 0 1.06066 
z
" style="stroke: #ff0000"/>
    </defs>
    <g clip-path="url(#pa7503a6961)">
     <use xlink:href="#me810ea8e5f" x="80.595306" y="31.665102" style="fill: #ff0000; stroke: #ff0000"/>
     <use xlink:href="#me810ea8e5f" x="68.362755" y="80.595306" style="fill: #ff0000; stroke: #ff0000"/>
     <use xlink:href="#me810ea8e5f" x="56.130204" y="68.362755" style="fill: #ff0000; stroke: #ff0000"/>
     <use xlink:href="#me810ea8e5f" x="61.023225" y="105.060408" style="fill: #ff0000; stroke: #ff0000"/>
     <use xlink:href="#me810ea8e5f" x="53.683694" y="117.292959" style="fill: #ff0000; stroke: #ff0000"/>
     <use xlink:href="#me810ea8e5f" x="65.916245" y="153.990612" style="fill: #ff0000; stroke: #ff0000"/>
     <use xlink:href="#me810ea8e5f" x="51.237184" y="166.223163" style="fill: #ff0000; stroke: #ff0000"/>
     <use xlink:href="#me810ea8e5f" x="43.897653" y="149.097592" style="fill: #ff0000; stroke: #ff0000"/>
     <use xlink:href="#me810ea8e5f" x="105.060408" y="51.237184" style="fill: #ff0000; stroke: #ff0000"/>
     <use xlink:href="#me810ea8e5f" x="73.255776" y="56.130204" style="fill: #ff0000; stroke: #ff0000"/>
     <use xlink:href="#me810ea8e5f" x="144.204572" y="124.63249" style="fill: #ff0000; stroke: #ff0000"/>
     <use xlink:href="#me810ea8e5f" x="92.827857" y="65.916245" style="fill: #ff0000; stroke: #ff0000"/>
     <use xlink:href="#me810ea8e5f" x="117.292959" y="80.595306" style="fill: #ff0000; stroke: #ff0000"/>
     <use xlink:href="#me810ea8e5f" x="119.73947" y="105.060408" style="fill: #ff0000; stroke: #ff0000"/>
     <use xlink:href="#me810ea8e5f" x="105.060408" y="92.827857" style="fill: #ff0000; stroke: #ff0000"/>
     <use xlink:href="#me810ea8e5f" x="139.311551" y="153.990612" style="fill: #ff0000; stroke: #ff0000"/>
     <use xlink:href="#me810ea8e5f" x="149.097592" y="149.097592" style="fill: #ff0000; stroke: #ff0000"/>
     <use xlink:href="#me810ea8e5f" x="158.883633" y="139.311551" style="fill: #ff0000; stroke: #ff0000"/>
     <use xlink:href="#me810ea8e5f" x="163.776653" y="129.52551" style="fill: #ff0000; stroke: #ff0000"/>
     <use xlink:href="#me810ea8e5f" x="190.688266" y="161.330143" style="fill: #ff0000; stroke: #ff0000"/>
     <use xlink:href="#me810ea8e5f" x="198.027796" y="153.990612" style="fill: #ff0000; stroke: #ff0000"/>
     <use xlink:href="#me810ea8e5f" x="180.902225" y="107.506918" style="fill: #ff0000; stroke: #ff0000"/>
     <use xlink:href="#me810ea8e5f" x="178.455714" y="134.418531" style="fill: #ff0000; stroke: #ff0000"/>
     <use xlink:href="#me810ea8e5f" x="193.134776" y="131.972021" style="fill: #ff0000; stroke: #ff0000"/>
     <use xlink:href="#me810ea8e5f" x="156.437123" y="105.060408" style="fill: #ff0000; stroke: #ff0000"/>
     <use xlink:href="#me810ea8e5f" x="210.260347" y="151.544102" style="fill: #ff0000; stroke: #ff0000"/>
     <use xlink:href="#me810ea8e5f" x="129.52551" y="168.669674" style="fill: #ff0000; stroke: #ff0000"/>
     <use xlink:href="#me810ea8e5f" x="117.292959" y="176.009204" style="fill: #ff0000; stroke: #ff0000"/>
     <use xlink:href="#me810ea8e5f" x="92.827857" y="176.009204" style="fill: #ff0000; stroke: #ff0000"/>
     <use xlink:href="#me810ea8e5f" x="112.399939" y="171.116184" style="fill: #ff0000; stroke: #ff0000"/>
     <use xlink:href="#me810ea8e5f" x="85.488327" y="105.060408" style="fill: #ff0000; stroke: #ff0000"/>
     <use xlink:href="#me810ea8e5f" x="78.148796" y="117.292959" style="fill: #ff0000; stroke: #ff0000"/>
     <use xlink:href="#me810ea8e5f" x="109.953429" y="129.52551" style="fill: #ff0000; stroke: #ff0000"/>
     <use xlink:href="#me810ea8e5f" x="102.613898" y="141.758061" style="fill: #ff0000; stroke: #ff0000"/>
    </g>
   </g>
   <g id="PathCollection_4">
    <defs>
     <path id="mfcc846af04" d="M 0 -3 
L -3 3 
L 3 3 
z
" style="stroke: #ff0000"/>
    </defs>
    <g clip-path="url(#pa7503a6961)">
     <use xlink:href="#mfcc846af04" x="80.595306" y="31.665102" style="fill: #ff0000; stroke: #ff0000"/>
    </g>
   </g>
   <g id="PathCollection_5">
    <defs>
     <path id="m0778b66733" d="M 0 1.06066 
C 0.28129 1.06066 0.551098 0.948902 0.75 0.75 
C 0.948902 0.551098 1.06066 0.28129 1.06066 0 
C 1.06066 -0.28129 0.948902 -0.551098 0.75 -0.75 
C 0.551098 -0.948902 0.28129 -1.06066 0 -1.06066 
C -0.28129 -1.06066 -0.551098 -0.948902 -0.75 -0.75 
C -0.948902 -0.551098 -1.06066 -0.28129 -1.06066 0 
C -1.06066 0.28129 -0.948902 0.551098 -0.75 0.75 
C -0.551098 0.948902 -0.28129 1.06066 0 1.06066 
z
" style="stroke: #0000ff"/>
    </defs>
    <g clip-path="url(#pa7503a6961)">
     <use xlink:href="#m0778b66733" x="300.781225" y="251.851021" style="fill: #0000ff; stroke: #0000ff"/>
     <use xlink:href="#m0778b66733" x="276.316123" y="276.316123" style="fill: #0000ff; stroke: #0000ff"/>
     <use xlink:href="#m0778b66733" x="288.548674" y="239.61847" style="fill: #0000ff; stroke: #0000ff"/>
     <use xlink:href="#m0778b66733" x="288.548674" y="268.976592" style="fill: #0000ff; stroke: #0000ff"/>
     <use xlink:href="#m0778b66733" x="264.083572" y="244.51149" style="fill: #0000ff; stroke: #0000ff"/>
     <use xlink:href="#m0778b66733" x="264.083572" y="266.530082" style="fill: #0000ff; stroke: #0000ff"/>
     <use xlink:href="#m0778b66733" x="215.153368" y="246.958" style="fill: #0000ff; stroke: #0000ff"/>
     <use xlink:href="#m0778b66733" x="239.61847" y="264.083572" style="fill: #0000ff; stroke: #0000ff"/>
     <use xlink:href="#m0778b66733" x="313.013776" y="227.385919" style="fill: #0000ff; stroke: #0000ff"/>
     <use xlink:href="#m0778b66733" x="202.920817" y="215.153368" style="fill: #0000ff; stroke: #0000ff"/>
     <use xlink:href="#m0778b66733" x="166.223163" y="227.385919" style="fill: #0000ff; stroke: #0000ff"/>
     <use xlink:href="#m0778b66733" x="180.902225" y="222.492898" style="fill: #0000ff; stroke: #0000ff"/>
     <use xlink:href="#m0778b66733" x="224.939408" y="205.367327" style="fill: #0000ff; stroke: #0000ff"/>
     <use xlink:href="#m0778b66733" x="251.851021" y="227.385919" style="fill: #0000ff; stroke: #0000ff"/>
     <use xlink:href="#m0778b66733" x="227.385919" y="239.61847" style="fill: #0000ff; stroke: #0000ff"/>
     <use xlink:href="#m0778b66733" x="273.869613" y="222.492898" style="fill: #0000ff; stroke: #0000ff"/>
     <use xlink:href="#m0778b66733" x="234.725449" y="229.832429" style="fill: #0000ff; stroke: #0000ff"/>
     <use xlink:href="#m0778b66733" x="141.758061" y="207.813837" style="fill: #0000ff; stroke: #0000ff"/>
     <use xlink:href="#m0778b66733" x="144.204572" y="200.474306" style="fill: #0000ff; stroke: #0000ff"/>
     <use xlink:href="#m0778b66733" x="190.688266" y="180.902225" style="fill: #0000ff; stroke: #0000ff"/>
     <use xlink:href="#m0778b66733" x="205.367327" y="188.241755" style="fill: #0000ff; stroke: #0000ff"/>
     <use xlink:href="#m0778b66733" x="149.097592" y="176.009204" style="fill: #0000ff; stroke: #0000ff"/>
     <use xlink:href="#m0778b66733" x="242.06498" y="178.455714" style="fill: #0000ff; stroke: #0000ff"/>
     <use xlink:href="#m0778b66733" x="207.813837" y="207.813837" style="fill: #0000ff; stroke: #0000ff"/>
     <use xlink:href="#m0778b66733" x="173.562694" y="202.920817" style="fill: #0000ff; stroke: #0000ff"/>
     <use xlink:href="#m0778b66733" x="153.990612" y="239.61847" style="fill: #0000ff; stroke: #0000ff"/>
     <use xlink:href="#m0778b66733" x="156.437123" y="215.153368" style="fill: #0000ff; stroke: #0000ff"/>
     <use xlink:href="#m0778b66733" x="158.883633" y="202.920817" style="fill: #0000ff; stroke: #0000ff"/>
     <use xlink:href="#m0778b66733" x="163.776653" y="190.688266" style="fill: #0000ff; stroke: #0000ff"/>
     <use xlink:href="#m0778b66733" x="178.455714" y="239.61847" style="fill: #0000ff; stroke: #0000ff"/>
     <use xlink:href="#m0778b66733" x="205.367327" y="239.61847" style="fill: #0000ff; stroke: #0000ff"/>
     <use xlink:href="#m0778b66733" x="149.097592" y="244.51149" style="fill: #0000ff; stroke: #0000ff"/>
     <use xlink:href="#m0778b66733" x="151.544102" y="222.492898" style="fill: #0000ff; stroke: #0000ff"/>
    </g>
   </g>
   <g id="PathCollection_6">
    <defs>
     <path id="m6467164f51" d="M 0 -3 
L -3 3 
L 3 3 
z
" style="stroke: #0000ff"/>
    </defs>
    <g clip-path="url(#pa7503a6961)">
     <use xlink:href="#m6467164f51" x="300.781225" y="251.851021" style="fill: #0000ff; stroke: #0000ff"/>
    </g>
   </g>
   <g id="PathCollection_7">
    <defs>
     <path id="mb3661770d0" d="M -2.12132 0 
L 2.12132 0 
M 0 2.12132 
L 0 -2.12132 
" style="stroke: #008000; stroke-width: 1.5"/>
    </defs>
    <g clip-path="url(#pa7503a6961)">
     <use xlink:href="#mb3661770d0" x="19.432551" y="310.567266" style="fill: #008000; stroke: #008000; stroke-width: 1.5"/>
     <use xlink:href="#mb3661770d0" x="14.539531" y="295.888204" style="fill: #008000; stroke: #008000; stroke-width: 1.5"/>
     <use xlink:href="#mb3661770d0" x="31.665102" y="288.548674" style="fill: #008000; stroke: #008000; stroke-width: 1.5"/>
     <use xlink:href="#mb3661770d0" x="24.325571" y="276.316123" style="fill: #008000; stroke: #008000; stroke-width: 1.5"/>
     <use xlink:href="#mb3661770d0" x="56.130204" y="308.120755" style="fill: #008000; stroke: #008000; stroke-width: 1.5"/>
     <use xlink:href="#mb3661770d0" x="26.772082" y="305.674245" style="fill: #008000; stroke: #008000; stroke-width: 1.5"/>
     <use xlink:href="#mb3661770d0" x="61.023225" y="227.385919" style="fill: #008000; stroke: #008000; stroke-width: 1.5"/>
     <use xlink:href="#mb3661770d0" x="43.897653" y="239.61847" style="fill: #008000; stroke: #008000; stroke-width: 1.5"/>
     <use xlink:href="#mb3661770d0" x="68.362755" y="246.958" style="fill: #008000; stroke: #008000; stroke-width: 1.5"/>
     <use xlink:href="#mb3661770d0" x="58.576714" y="276.316123" style="fill: #008000; stroke: #008000; stroke-width: 1.5"/>
     <use xlink:href="#mb3661770d0" x="43.897653" y="227.385919" style="fill: #008000; stroke: #008000; stroke-width: 1.5"/>
     <use xlink:href="#mb3661770d0" x="39.004633" y="237.171959" style="fill: #008000; stroke: #008000; stroke-width: 1.5"/>
     <use xlink:href="#mb3661770d0" x="41.451143" y="251.851021" style="fill: #008000; stroke: #008000; stroke-width: 1.5"/>
     <use xlink:href="#mb3661770d0" x="21.879061" y="264.083572" style="fill: #008000; stroke: #008000; stroke-width: 1.5"/>
    </g>
   </g>
   <g id="PathCollection_8">
    <defs>
     <path id="m47a22dd216" d="M -2.12132 0 
L 2.12132 0 
M 0 2.12132 
L 0 -2.12132 
" style="stroke: #ff0000; stroke-width: 1.5"/>
    </defs>
    <g clip-path="url(#pa7503a6961)">
     <use xlink:href="#m47a22dd216" x="80.595306" y="31.665102" style="fill: #ff0000; stroke: #ff0000; stroke-width: 1.5"/>
     <use xlink:href="#m47a22dd216" x="68.362755" y="80.595306" style="fill: #ff0000; stroke: #ff0000; stroke-width: 1.5"/>
     <use xlink:href="#m47a22dd216" x="56.130204" y="68.362755" style="fill: #ff0000; stroke: #ff0000; stroke-width: 1.5"/>
     <use xlink:href="#m47a22dd216" x="61.023225" y="105.060408" style="fill: #ff0000; stroke: #ff0000; stroke-width: 1.5"/>
     <use xlink:href="#m47a22dd216" x="53.683694" y="117.292959" style="fill: #ff0000; stroke: #ff0000; stroke-width: 1.5"/>
     <use xlink:href="#m47a22dd216" x="65.916245" y="153.990612" style="fill: #ff0000; stroke: #ff0000; stroke-width: 1.5"/>
     <use xlink:href="#m47a22dd216" x="51.237184" y="166.223163" style="fill: #ff0000; stroke: #ff0000; stroke-width: 1.5"/>
     <use xlink:href="#m47a22dd216" x="43.897653" y="149.097592" style="fill: #ff0000; stroke: #ff0000; stroke-width: 1.5"/>
     <use xlink:href="#m47a22dd216" x="105.060408" y="51.237184" style="fill: #ff0000; stroke: #ff0000; stroke-width: 1.5"/>
     <use xlink:href="#m47a22dd216" x="73.255776" y="56.130204" style="fill: #ff0000; stroke: #ff0000; stroke-width: 1.5"/>
     <use xlink:href="#m47a22dd216" x="144.204572" y="124.63249" style="fill: #ff0000; stroke: #ff0000; stroke-width: 1.5"/>
     <use xlink:href="#m47a22dd216" x="92.827857" y="65.916245" style="fill: #ff0000; stroke: #ff0000; stroke-width: 1.5"/>
     <use xlink:href="#m47a22dd216" x="117.292959" y="80.595306" style="fill: #ff0000; stroke: #ff0000; stroke-width: 1.5"/>
     <use xlink:href="#m47a22dd216" x="119.73947" y="105.060408" style="fill: #ff0000; stroke: #ff0000; stroke-width: 1.5"/>
     <use xlink:href="#m47a22dd216" x="105.060408" y="92.827857" style="fill: #ff0000; stroke: #ff0000; stroke-width: 1.5"/>
     <use xlink:href="#m47a22dd216" x="139.311551" y="153.990612" style="fill: #ff0000; stroke: #ff0000; stroke-width: 1.5"/>
     <use xlink:href="#m47a22dd216" x="149.097592" y="149.097592" style="fill: #ff0000; stroke: #ff0000; stroke-width: 1.5"/>
     <use xlink:href="#m47a22dd216" x="158.883633" y="139.311551" style="fill: #ff0000; stroke: #ff0000; stroke-width: 1.5"/>
     <use xlink:href="#m47a22dd216" x="163.776653" y="129.52551" style="fill: #ff0000; stroke: #ff0000; stroke-width: 1.5"/>
     <use xlink:href="#m47a22dd216" x="190.688266" y="161.330143" style="fill: #ff0000; stroke: #ff0000; stroke-width: 1.5"/>
     <use xlink:href="#m47a22dd216" x="198.027796" y="153.990612" style="fill: #ff0000; stroke: #ff0000; stroke-width: 1.5"/>
     <use xlink:href="#m47a22dd216" x="180.902225" y="107.506918" style="fill: #ff0000; stroke: #ff0000; stroke-width: 1.5"/>
     <use xlink:href="#m47a22dd216" x="178.455714" y="134.418531" style="fill: #ff0000; stroke: #ff0000; stroke-width: 1.5"/>
     <use xlink:href="#m47a22dd216" x="193.134776" y="131.972021" style="fill: #ff0000; stroke: #ff0000; stroke-width: 1.5"/>
     <use xlink:href="#m47a22dd216" x="156.437123" y="105.060408" style="fill: #ff0000; stroke: #ff0000; stroke-width: 1.5"/>
     <use xlink:href="#m47a22dd216" x="210.260347" y="151.544102" style="fill: #ff0000; stroke: #ff0000; stroke-width: 1.5"/>
     <use xlink:href="#m47a22dd216" x="129.52551" y="168.669674" style="fill: #ff0000; stroke: #ff0000; stroke-width: 1.5"/>
     <use xlink:href="#m47a22dd216" x="117.292959" y="176.009204" style="fill: #ff0000; stroke: #ff0000; stroke-width: 1.5"/>
     <use xlink:href="#m47a22dd216" x="92.827857" y="176.009204" style="fill: #ff0000; stroke: #ff0000; stroke-width: 1.5"/>
     <use xlink:href="#m47a22dd216" x="112.399939" y="171.116184" style="fill: #ff0000; stroke: #ff0000; stroke-width: 1.5"/>
     <use xlink:href="#m47a22dd216" x="85.488327" y="105.060408" style="fill: #ff0000; stroke: #ff0000; stroke-width: 1.5"/>
     <use xlink:href="#m47a22dd216" x="78.148796" y="117.292959" style="fill: #ff0000; stroke: #ff0000; stroke-width: 1.5"/>
     <use xlink:href="#m47a22dd216" x="109.953429" y="129.52551" style="fill: #ff0000; stroke: #ff0000; stroke-width: 1.5"/>
     <use xlink:href="#m47a22dd216" x="102.613898" y="141.758061" style="fill: #ff0000; stroke: #ff0000; stroke-width: 1.5"/>
    </g>
   </g>
   <g id="PathCollection_9">
    <defs>
     <path id="m3834387eac" d="M -2.12132 0 
L 2.12132 0 
M 0 2.12132 
L 0 -2.12132 
" style="stroke: #0000ff; stroke-width: 1.5"/>
    </defs>
    <g clip-path="url(#pa7503a6961)">
     <use xlink:href="#m3834387eac" x="300.781225" y="251.851021" style="fill: #0000ff; stroke: #0000ff; stroke-width: 1.5"/>
     <use xlink:href="#m3834387eac" x="276.316123" y="276.316123" style="fill: #0000ff; stroke: #0000ff; stroke-width: 1.5"/>
     <use xlink:href="#m3834387eac" x="288.548674" y="239.61847" style="fill: #0000ff; stroke: #0000ff; stroke-width: 1.5"/>
     <use xlink:href="#m3834387eac" x="288.548674" y="268.976592" style="fill: #0000ff; stroke: #0000ff; stroke-width: 1.5"/>
     <use xlink:href="#m3834387eac" x="264.083572" y="244.51149" style="fill: #0000ff; stroke: #0000ff; stroke-width: 1.5"/>
     <use xlink:href="#m3834387eac" x="264.083572" y="266.530082" style="fill: #0000ff; stroke: #0000ff; stroke-width: 1.5"/>
     <use xlink:href="#m3834387eac" x="215.153368" y="246.958" style="fill: #0000ff; stroke: #0000ff; stroke-width: 1.5"/>
     <use xlink:href="#m3834387eac" x="239.61847" y="264.083572" style="fill: #0000ff; stroke: #0000ff; stroke-width: 1.5"/>
     <use xlink:href="#m3834387eac" x="313.013776" y="227.385919" style="fill: #0000ff; stroke: #0000ff; stroke-width: 1.5"/>
     <use xlink:href="#m3834387eac" x="202.920817" y="215.153368" style="fill: #0000ff; stroke: #0000ff; stroke-width: 1.5"/>
     <use xlink:href="#m3834387eac" x="166.223163" y="227.385919" style="fill: #0000ff; stroke: #0000ff; stroke-width: 1.5"/>
     <use xlink:href="#m3834387eac" x="180.902225" y="222.492898" style="fill: #0000ff; stroke: #0000ff; stroke-width: 1.5"/>
     <use xlink:href="#m3834387eac" x="224.939408" y="205.367327" style="fill: #0000ff; stroke: #0000ff; stroke-width: 1.5"/>
     <use xlink:href="#m3834387eac" x="251.851021" y="227.385919" style="fill: #0000ff; stroke: #0000ff; stroke-width: 1.5"/>
     <use xlink:href="#m3834387eac" x="227.385919" y="239.61847" style="fill: #0000ff; stroke: #0000ff; stroke-width: 1.5"/>
     <use xlink:href="#m3834387eac" x="273.869613" y="222.492898" style="fill: #0000ff; stroke: #0000ff; stroke-width: 1.5"/>
     <use xlink:href="#m3834387eac" x="234.725449" y="229.832429" style="fill: #0000ff; stroke: #0000ff; stroke-width: 1.5"/>
     <use xlink:href="#m3834387eac" x="141.758061" y="207.813837" style="fill: #0000ff; stroke: #0000ff; stroke-width: 1.5"/>
     <use xlink:href="#m3834387eac" x="144.204572" y="200.474306" style="fill: #0000ff; stroke: #0000ff; stroke-width: 1.5"/>
     <use xlink:href="#m3834387eac" x="190.688266" y="180.902225" style="fill: #0000ff; stroke: #0000ff; stroke-width: 1.5"/>
     <use xlink:href="#m3834387eac" x="205.367327" y="188.241755" style="fill: #0000ff; stroke: #0000ff; stroke-width: 1.5"/>
     <use xlink:href="#m3834387eac" x="149.097592" y="176.009204" style="fill: #0000ff; stroke: #0000ff; stroke-width: 1.5"/>
     <use xlink:href="#m3834387eac" x="242.06498" y="178.455714" style="fill: #0000ff; stroke: #0000ff; stroke-width: 1.5"/>
     <use xlink:href="#m3834387eac" x="207.813837" y="207.813837" style="fill: #0000ff; stroke: #0000ff; stroke-width: 1.5"/>
     <use xlink:href="#m3834387eac" x="173.562694" y="202.920817" style="fill: #0000ff; stroke: #0000ff; stroke-width: 1.5"/>
     <use xlink:href="#m3834387eac" x="153.990612" y="239.61847" style="fill: #0000ff; stroke: #0000ff; stroke-width: 1.5"/>
     <use xlink:href="#m3834387eac" x="156.437123" y="215.153368" style="fill: #0000ff; stroke: #0000ff; stroke-width: 1.5"/>
     <use xlink:href="#m3834387eac" x="158.883633" y="202.920817" style="fill: #0000ff; stroke: #0000ff; stroke-width: 1.5"/>
     <use xlink:href="#m3834387eac" x="163.776653" y="190.688266" style="fill: #0000ff; stroke: #0000ff; stroke-width: 1.5"/>
     <use xlink:href="#m3834387eac" x="178.455714" y="239.61847" style="fill: #0000ff; stroke: #0000ff; stroke-width: 1.5"/>
     <use xlink:href="#m3834387eac" x="205.367327" y="239.61847" style="fill: #0000ff; stroke: #0000ff; stroke-width: 1.5"/>
     <use xlink:href="#m3834387eac" x="149.097592" y="244.51149" style="fill: #0000ff; stroke: #0000ff; stroke-width: 1.5"/>
     <use xlink:href="#m3834387eac" x="151.544102" y="222.492898" style="fill: #0000ff; stroke: #0000ff; stroke-width: 1.5"/>
    </g>
   </g>
   <g id="PathCollection_10">
    <g clip-path="url(#pa7503a6961)">
     <use xlink:href="#m47a22dd216" x="149.097592" y="176.009204" style="fill: #ff0000; stroke: #ff0000; stroke-width: 1.5"/>
    </g>
   </g>
   <g id="PathCollection_11">
    <g clip-path="url(#pa7503a6961)">
     <use xlink:href="#m47a22dd216" x="202.920817" y="166.223163" style="fill: #ff0000; stroke: #ff0000; stroke-width: 1.5"/>
    </g>
   </g>
   <g id="text_1">
    <!-- 聚类中心 -->
    <g transform="translate(24.325571 322.529401) scale(0.12 -0.12)">
     <defs>
      <path id="SimSun-805a" d="M 2525 1425 
L 2275 1375 
Q 1375 750 725 475 
L 700 575 
Q 1075 800 1462 1125 
Q 1850 1450 2125 1800 
L 2525 1425 
z
M 6075 225 
Q 5675 150 5600 -125 
Q 4675 175 4187 675 
Q 3700 1175 3400 2000 
L 3400 125 
Q 3400 -50 3425 -450 
L 3050 -625 
Q 3075 275 3075 2000 
Q 2575 1950 1475 1875 
L 1475 1975 
Q 2325 2075 2700 2137 
Q 3075 2200 3562 2300 
Q 4050 2400 4575 2625 
L 4825 2200 
Q 4300 2150 4025 2100 
Q 3750 2050 3525 2025 
Q 3800 1400 4225 975 
Q 4475 1200 4712 1487 
Q 4950 1775 5075 1975 
L 5450 1550 
L 5200 1500 
Q 4575 1050 4325 875 
Q 4600 650 5050 487 
Q 5500 325 6075 300 
L 6075 225 
z
M 2900 675 
L 2650 650 
Q 2300 400 1850 150 
Q 1400 -100 850 -300 
L 825 -200 
Q 1350 50 1762 362 
Q 2175 675 2550 1100 
L 2900 675 
z
M 3750 3150 
L 3125 2950 
Q 3125 2625 3150 2475 
L 2775 2325 
Q 2800 2600 2800 2875 
Q 2050 2700 1575 2550 
Q 1100 2400 825 2250 
L 600 2650 
Q 950 2700 1275 2750 
L 1275 4775 
Q 1000 4775 725 4700 
L 500 4925 
L 3225 4925 
L 3575 5225 
L 4000 4775 
L 3125 4775 
L 3125 3100 
L 3725 3225 
L 3750 3150 
z
M 1600 4775 
L 1600 4225 
L 2800 4225 
L 2800 4775 
L 1600 4775 
z
M 1600 4075 
L 1600 3575 
L 2800 3575 
L 2800 4075 
L 1600 4075 
z
M 1600 2800 
L 2800 3025 
L 2800 3425 
L 1600 3425 
L 1600 2800 
z
M 5600 4325 
Q 5225 3825 4975 3575 
Q 5525 3250 5662 3062 
Q 5800 2875 5762 2725 
Q 5725 2575 5637 2562 
Q 5550 2550 5375 2800 
Q 5200 3050 4800 3350 
Q 4200 2825 3350 2550 
L 3325 2625 
Q 4075 3000 4575 3500 
Q 4100 3800 3650 4050 
L 3675 4125 
Q 4025 4000 4725 3700 
Q 4975 3975 5300 4450 
L 4275 4450 
Q 3950 4450 3675 4375 
L 3450 4600 
L 5275 4600 
L 5500 4825 
L 5850 4475 
L 5600 4325 
z
" transform="scale(0.015625)"/>
      <path id="SimSun-7c7b" d="M 1375 4925 
L 1425 5000 
Q 1975 4775 2200 4612 
Q 2425 4450 2412 4287 
Q 2400 4125 2325 4012 
Q 2250 3900 2200 3900 
Q 2125 3900 2025 4150 
Q 1850 4500 1375 4925 
z
M 3075 3750 
L 3075 4825 
Q 3075 5000 3050 5225 
L 3700 4975 
L 3425 4775 
L 3425 3750 
L 3900 3750 
Q 4475 4525 4750 5075 
L 5250 4650 
L 4975 4575 
Q 4700 4375 4050 3750 
L 5275 3750 
L 5625 4075 
L 6075 3600 
L 3425 3600 
L 3425 3450 
Q 5000 3025 5300 2850 
Q 5600 2675 5625 2550 
Q 5650 2425 5650 2375 
Q 5650 2250 5612 2175 
Q 5575 2100 5550 2100 
Q 5425 2100 5150 2400 
Q 4775 2775 3425 3350 
Q 3425 2575 3450 2400 
L 3050 2250 
Q 3075 2575 3075 3575 
Q 2625 3000 2037 2575 
Q 1450 2150 400 1850 
L 375 1925 
Q 1300 2325 1812 2725 
Q 2325 3125 2675 3600 
L 1250 3600 
Q 925 3600 650 3525 
L 425 3750 
L 3075 3750 
z
M 3250 1775 
Q 3200 1625 3150 1500 
L 5300 1500 
L 5650 1850 
L 6100 1350 
L 3500 1350 
Q 3925 750 4550 375 
Q 5175 0 6125 -100 
L 6125 -200 
Q 5650 -225 5525 -550 
Q 4700 -225 4137 325 
Q 3575 875 3375 1350 
L 3125 1350 
Q 2825 375 2175 -37 
Q 1525 -450 300 -650 
L 275 -575 
Q 1175 -350 1825 62 
Q 2475 475 2750 1350 
L 1075 1350 
Q 750 1350 475 1275 
L 250 1500 
L 2775 1500 
Q 2825 1850 2850 2225 
L 3475 1925 
L 3250 1775 
z
" transform="scale(0.015625)"/>
      <path id="SimSun-4e2d" d="M 3325 3625 
L 3325 1975 
L 5125 1975 
L 5125 3625 
L 3325 3625 
z
M 2950 3775 
Q 2950 4750 2925 5250 
L 3525 4975 
L 3325 4775 
L 3325 3775 
L 5075 3775 
L 5275 4075 
L 5700 3750 
L 5475 3550 
L 5475 2100 
Q 5475 1825 5500 1525 
L 5125 1375 
L 5125 1825 
L 3325 1825 
Q 3325 -75 3350 -400 
L 2925 -625 
Q 2950 -50 2950 1825 
L 1225 1825 
L 1225 1525 
L 850 1325 
Q 875 1775 875 2625 
Q 875 3475 850 4000 
L 1225 3775 
L 2950 3775 
z
M 1225 3625 
L 1225 1975 
L 2950 1975 
L 2950 3625 
L 1225 3625 
z
" transform="scale(0.015625)"/>
      <path id="SimSun-5fc3" d="M 2750 4875 
Q 3350 4525 3625 4275 
Q 3900 4025 3862 3762 
Q 3825 3500 3725 3412 
Q 3625 3325 3575 3325 
Q 3450 3325 3350 3675 
Q 3200 4125 2675 4800 
L 2750 4875 
z
M 2025 3800 
L 2650 3475 
L 2425 3275 
L 2425 725 
Q 2400 225 2775 200 
L 4200 200 
Q 4475 225 4537 625 
Q 4600 1025 4625 1675 
L 4750 1675 
Q 4750 1000 4812 687 
Q 4875 375 5150 275 
Q 4950 -125 4425 -125 
L 2575 -125 
Q 2000 -100 2050 625 
L 2050 2675 
Q 2050 3325 2025 3800 
z
M 1225 2900 
L 1350 2900 
Q 1350 2100 1300 1725 
Q 1250 1350 1087 1225 
Q 925 1100 775 1100 
Q 700 1100 587 1137 
Q 475 1175 475 1250 
Q 475 1375 700 1625 
Q 1025 2000 1225 2900 
z
M 4850 2925 
L 4925 2975 
Q 5675 2300 5825 2050 
Q 5975 1800 5925 1550 
Q 5875 1300 5775 1237 
Q 5675 1175 5625 1175 
Q 5500 1175 5450 1525 
Q 5375 1975 4850 2925 
z
" transform="scale(0.015625)"/>
     </defs>
     <use xlink:href="#SimSun-805a"/>
     <use xlink:href="#SimSun-7c7b" x="100"/>
     <use xlink:href="#SimSun-4e2d" x="200"/>
     <use xlink:href="#SimSun-5fc3" x="300"/>
    </g>
   </g>
   <g id="text_2">
    <!-- 聚类中心 -->
    <g transform="translate(85.488327 43.627237) scale(0.12 -0.12)">
     <use xlink:href="#SimSun-805a"/>
     <use xlink:href="#SimSun-7c7b" x="100"/>
     <use xlink:href="#SimSun-4e2d" x="200"/>
     <use xlink:href="#SimSun-5fc3" x="300"/>
    </g>
   </g>
   <g id="text_3">
    <!-- 聚类中心 -->
    <g transform="translate(305.674245 263.813156) scale(0.12 -0.12)">
     <use xlink:href="#SimSun-805a"/>
     <use xlink:href="#SimSun-7c7b" x="100"/>
     <use xlink:href="#SimSun-4e2d" x="200"/>
     <use xlink:href="#SimSun-5fc3" x="300"/>
    </g>
   </g>
   <g id="text_4">
    <!-- $\bigtriangleup$ = 聚类中心 -->
    <g transform="translate(251.851021 66.090204) scale(0.12 -0.12)">
     <defs>
      <path id="STIXGeneral-Regular-25b3" d="M 7104 -813 
L 224 -813 
L 3667 5190 
L 7104 -813 
z
M 6368 -390 
L 3667 4339 
L 954 -390 
L 6368 -390 
z
" transform="scale(0.015625)"/>
      <path id="SimSun-20" d="M 0 0 
Q 0 0 0 0 
z
" transform="scale(0.015625)"/>
      <path id="SimSun-3d" d="M 200 2825 
L 200 3050 
L 2975 3050 
L 2975 2825 
L 200 2825 
z
M 200 1550 
L 200 1775 
L 2975 1775 
L 2975 1550 
L 200 1550 
z
" transform="scale(0.015625)"/>
     </defs>
     <use xlink:href="#STIXGeneral-Regular-25b3" transform="translate(0 0.96875)"/>
     <use xlink:href="#SimSun-20" transform="translate(114.499985 0.96875)"/>
     <use xlink:href="#SimSun-3d" transform="translate(164.499985 0.96875)"/>
     <use xlink:href="#SimSun-20" transform="translate(214.499985 0.96875)"/>
     <use xlink:href="#SimSun-805a" transform="translate(264.499985 0.96875)"/>
     <use xlink:href="#SimSun-7c7b" transform="translate(364.499985 0.96875)"/>
     <use xlink:href="#SimSun-4e2d" transform="translate(464.499985 0.96875)"/>
     <use xlink:href="#SimSun-5fc3" transform="translate(564.499985 0.96875)"/>
    </g>
   </g>
   <g id="text_5">
    <!-- $+$ = 标签 -->
    <g transform="translate(251.851021 90.208431) scale(0.12 -0.12)">
     <defs>
      <path id="STIXGeneral-Regular-2b" d="M 4070 1408 
L 2400 1408 
L 2400 -262 
L 1978 -262 
L 1978 1408 
L 307 1408 
L 307 1830 
L 1978 1830 
L 1978 3501 
L 2400 3501 
L 2400 1830 
L 4070 1830 
L 4070 1408 
z
" transform="scale(0.015625)"/>
      <path id="SimSun-6807" d="M 4775 2225 
Q 5725 1275 5825 1050 
Q 5925 825 5925 700 
Q 5925 525 5825 375 
Q 5725 225 5700 225 
Q 5575 225 5475 650 
Q 5300 1225 4700 2175 
L 4775 2225 
z
M 2750 4600 
L 4975 4600 
L 5275 4900 
L 5725 4450 
L 3175 4450 
L 2950 4400 
L 2750 4600 
z
M 3100 75 
Q 3775 -50 3900 -25 
Q 4025 0 4025 175 
L 4025 2950 
L 2800 2950 
L 2575 2900 
L 2375 3100 
L 5350 3100 
L 5675 3425 
L 6150 2950 
L 4400 2950 
L 4400 -25 
Q 4375 -425 3850 -600 
Q 3850 -300 3100 -50 
L 3100 75 
z
M 3125 2275 
L 3675 1950 
L 3425 1825 
Q 2800 700 2100 25 
L 2025 100 
Q 2725 1025 3125 2275 
z
M 1675 2725 
Q 1675 25 1700 -475 
L 1300 -625 
Q 1325 450 1325 2325 
Q 950 1450 350 700 
L 275 800 
Q 975 1925 1325 3475 
L 700 3475 
L 475 3425 
L 275 3625 
L 1325 3625 
Q 1325 4575 1300 5275 
L 1900 4975 
L 1675 4800 
L 1675 3625 
L 2000 3625 
L 2275 3900 
L 2700 3475 
L 1675 3475 
L 1675 2850 
Q 2150 2600 2312 2425 
Q 2475 2250 2475 2125 
Q 2475 2050 2400 1912 
Q 2325 1775 2275 1775 
Q 2200 1775 2100 2075 
Q 1925 2475 1675 2725 
z
" transform="scale(0.015625)"/>
      <path id="SimSun-7b7e" d="M 1550 5200 
L 2050 4850 
Q 1825 4750 1575 4300 
L 2650 4300 
L 2950 4600 
L 3350 4150 
L 1900 4150 
Q 2250 3925 2362 3775 
Q 2475 3625 2475 3475 
Q 2475 3400 2437 3300 
Q 2400 3200 2262 3125 
Q 2125 3050 2100 3225 
Q 2075 3400 2000 3662 
Q 1925 3925 1750 4150 
L 1500 4150 
Q 1200 3750 950 3450 
Q 700 3150 350 2825 
L 275 2875 
Q 625 3300 1000 3937 
Q 1375 4575 1550 5200 
z
M 4000 5225 
L 4500 4900 
Q 4275 4800 4000 4300 
L 5225 4300 
L 5550 4625 
L 6000 4150 
L 4575 4150 
Q 4900 3950 5062 3775 
Q 5225 3600 5212 3450 
Q 5200 3300 5087 3200 
Q 4975 3100 4925 3100 
Q 4875 3100 4850 3225 
Q 4800 3425 4725 3637 
Q 4650 3850 4450 4150 
L 3950 4150 
Q 3675 3775 3375 3450 
L 3300 3500 
Q 3775 4300 4000 5225 
z
M 3225 3100 
Q 2475 2350 1800 1962 
Q 1125 1575 250 1325 
L 250 1425 
Q 1250 1825 1925 2350 
Q 2600 2875 3000 3650 
L 3500 3300 
L 3300 3200 
Q 3600 2875 4112 2562 
Q 4625 2250 5150 2112 
Q 5675 1975 6125 1950 
L 6125 1850 
Q 5725 1775 5625 1500 
Q 5225 1625 4712 1887 
Q 4200 2150 3850 2462 
Q 3500 2775 3225 3100 
z
M 1600 1425 
Q 2075 1000 2237 775 
Q 2400 550 2375 375 
Q 2350 200 2237 87 
Q 2125 -25 2062 0 
Q 2000 25 1950 325 
Q 1875 600 1775 862 
Q 1675 1125 1525 1375 
L 1600 1425 
z
M 2750 1575 
Q 3250 1125 3350 900 
Q 3450 675 3450 550 
Q 3450 450 3400 325 
Q 3350 200 3275 162 
Q 3200 125 3175 125 
Q 3100 125 3062 287 
Q 3025 450 2975 750 
Q 2925 1050 2675 1525 
L 2750 1575 
z
M 4400 1600 
L 4950 1200 
L 4700 1125 
Q 4275 475 3850 -150 
L 5100 -150 
L 5500 225 
L 5975 -300 
L 1325 -300 
Q 975 -300 700 -375 
L 475 -150 
L 3700 -150 
Q 4125 650 4400 1600 
z
M 1825 1950 
L 3725 1950 
L 4025 2225 
L 4425 1800 
L 2525 1800 
Q 2325 1800 2050 1725 
L 1825 1950 
z
" transform="scale(0.015625)"/>
     </defs>
     <use xlink:href="#STIXGeneral-Regular-2b" transform="translate(0 0.578125)"/>
     <use xlink:href="#SimSun-20" transform="translate(68.499985 0.578125)"/>
     <use xlink:href="#SimSun-3d" transform="translate(118.499985 0.578125)"/>
     <use xlink:href="#SimSun-20" transform="translate(168.499985 0.578125)"/>
     <use xlink:href="#SimSun-6807" transform="translate(218.499985 0.578125)"/>
     <use xlink:href="#SimSun-7b7e" transform="translate(318.499985 0.578125)"/>
    </g>
   </g>
  </g>
 </g>
 <defs>
  <clipPath id="pa7503a6961">
   <rect x="7.2" y="7.2" width="318.046327" height="318.046327"/>
  </clipPath>
 </defs>
</svg>
